G04 #@! TF.GenerationSoftware,KiCad,Pcbnew,(5.0.2)-1*
G04 #@! TF.CreationDate,2019-07-28T23:06:21+08:00*
G04 #@! TF.ProjectId,PIR,5049522e-6b69-4636-9164-5f7063625858,rev?*
G04 #@! TF.SameCoordinates,Original*
G04 #@! TF.FileFunction,Legend,Top*
G04 #@! TF.FilePolarity,Positive*
%FSLAX46Y46*%
G04 Gerber Fmt 4.6, Leading zero omitted, Abs format (unit mm)*
G04 Created by KiCad (PCBNEW (5.0.2)-1) date 2019-07-28 23:06:21*
%MOMM*%
%LPD*%
G01*
G04 APERTURE LIST*
%ADD10C,0.150000*%
%ADD11C,0.500000*%
%ADD12C,0.200000*%
%ADD13C,0.250000*%
%ADD14C,0.254000*%
%ADD15C,0.120000*%
G04 APERTURE END LIST*
D10*
X53313384Y-58319558D02*
X53313384Y-57862415D01*
X54113384Y-58090986D02*
X53313384Y-58090986D01*
X54113384Y-57214796D02*
X54113384Y-57595748D01*
X53313384Y-57595748D01*
X53313384Y-57062415D02*
X54113384Y-56795748D01*
X53313384Y-56529081D01*
X43473439Y-67209624D02*
X43092486Y-67209624D01*
X43092486Y-66409624D01*
X43740105Y-66409624D02*
X43740105Y-67057243D01*
X43778200Y-67133434D01*
X43816296Y-67171529D01*
X43892486Y-67209624D01*
X44044867Y-67209624D01*
X44121058Y-67171529D01*
X44159153Y-67133434D01*
X44197248Y-67057243D01*
X44197248Y-66409624D01*
X44502010Y-66409624D02*
X45035343Y-67209624D01*
X45035343Y-66409624D02*
X44502010Y-67209624D01*
X37434653Y-69518584D02*
X37891796Y-69518584D01*
X37663224Y-70318584D02*
X37663224Y-69518584D01*
X38729891Y-69480489D02*
X38044177Y-70509060D01*
X38996558Y-70318584D02*
X38996558Y-69518584D01*
X38996558Y-69899537D02*
X39453700Y-69899537D01*
X39453700Y-70318584D02*
X39453700Y-69518584D01*
D11*
X36642040Y-70553580D02*
X36642040Y-70553580D01*
X41513760Y-64442340D02*
X41513760Y-64442340D01*
D12*
G04 #@! TO.C,C7*
X35177780Y-49675940D02*
G75*
G02X35577780Y-49275940I400000J0D01*
G01*
X35577780Y-50855940D02*
G75*
G02X35177780Y-50455940I0J400000D01*
G01*
X38247780Y-50455940D02*
G75*
G02X37847780Y-50855940I-400000J0D01*
G01*
X37847780Y-49275940D02*
G75*
G02X38247780Y-49675940I0J-400000D01*
G01*
X35577780Y-50855940D02*
X36312780Y-50855940D01*
X37112780Y-50855940D02*
X37847780Y-50855940D01*
X37112780Y-49275940D02*
X37847780Y-49275940D01*
X35177780Y-50455940D02*
X35177780Y-49675940D01*
X38247780Y-50455940D02*
X38247780Y-49675940D01*
X35577780Y-49275940D02*
X36312780Y-49275940D01*
G04 #@! TO.C,R7*
X35162540Y-51122520D02*
X36297540Y-51122520D01*
X38232540Y-52702520D02*
X38232540Y-51122520D01*
X35162540Y-52702520D02*
X35162540Y-51122520D01*
X37097540Y-51122520D02*
X38232540Y-51122520D01*
X35162540Y-52702520D02*
X36297540Y-52702520D01*
X37097540Y-52702520D02*
X38232540Y-52702520D01*
G04 #@! TO.C,R6*
X37097540Y-54589740D02*
X38232540Y-54589740D01*
X35162540Y-54589740D02*
X36297540Y-54589740D01*
X37097540Y-53009740D02*
X38232540Y-53009740D01*
X35162540Y-54589740D02*
X35162540Y-53009740D01*
X38232540Y-54589740D02*
X38232540Y-53009740D01*
X35162540Y-53009740D02*
X36297540Y-53009740D01*
D13*
G04 #@! TO.C,U4*
X53177920Y-56095640D02*
G75*
G03X53177920Y-56095640I-125000J0D01*
G01*
D14*
X52702920Y-58195640D02*
X52702920Y-57195640D01*
X49902920Y-58195640D02*
X49902920Y-57195640D01*
X52702920Y-57195640D02*
X49902920Y-57195640D01*
X52702920Y-58195640D02*
X49902920Y-58195640D01*
D15*
G04 #@! TO.C,U3*
X38790280Y-70693640D02*
X40290280Y-70693640D01*
X37290280Y-73913640D02*
X40290280Y-73913640D01*
G04 #@! TO.C,L1*
X49873860Y-52913080D02*
X52873860Y-52913080D01*
X49873860Y-49713080D02*
X52873860Y-49713080D01*
D12*
G04 #@! TO.C,C5*
X52437920Y-54810720D02*
X51702920Y-54810720D01*
X49767920Y-53630720D02*
X49767920Y-54410720D01*
X52837920Y-53630720D02*
X52837920Y-54410720D01*
X50902920Y-54810720D02*
X50167920Y-54810720D01*
X50902920Y-53230720D02*
X50167920Y-53230720D01*
X52437920Y-53230720D02*
X51702920Y-53230720D01*
X50167920Y-54810720D02*
G75*
G02X49767920Y-54410720I0J400000D01*
G01*
X49767920Y-53630720D02*
G75*
G02X50167920Y-53230720I400000J0D01*
G01*
X52437920Y-53230720D02*
G75*
G02X52837920Y-53630720I0J-400000D01*
G01*
X52837920Y-54410720D02*
G75*
G02X52437920Y-54810720I-400000J0D01*
G01*
G04 #@! TO.C,R4*
X52771880Y-61930340D02*
X51636880Y-61930340D01*
X49701880Y-60350340D02*
X49701880Y-61930340D01*
X52771880Y-60350340D02*
X52771880Y-61930340D01*
X50836880Y-61930340D02*
X49701880Y-61930340D01*
X52771880Y-60350340D02*
X51636880Y-60350340D01*
X50836880Y-60350340D02*
X49701880Y-60350340D01*
G04 #@! TO.C,R5*
X49709500Y-62209620D02*
X50844500Y-62209620D01*
X52779500Y-63789620D02*
X52779500Y-62209620D01*
X49709500Y-63789620D02*
X49709500Y-62209620D01*
X51644500Y-62209620D02*
X52779500Y-62209620D01*
X49709500Y-63789620D02*
X50844500Y-63789620D01*
X51644500Y-63789620D02*
X52779500Y-63789620D01*
G04 #@! TO.C,C1*
X35568000Y-64231460D02*
X36303000Y-64231460D01*
X38238000Y-65411460D02*
X38238000Y-64631460D01*
X35168000Y-65411460D02*
X35168000Y-64631460D01*
X37103000Y-64231460D02*
X37838000Y-64231460D01*
X37103000Y-65811460D02*
X37838000Y-65811460D01*
X35568000Y-65811460D02*
X36303000Y-65811460D01*
X37838000Y-64231460D02*
G75*
G02X38238000Y-64631460I0J-400000D01*
G01*
X38238000Y-65411460D02*
G75*
G02X37838000Y-65811460I-400000J0D01*
G01*
X35568000Y-65811460D02*
G75*
G02X35168000Y-65411460I0J400000D01*
G01*
X35168000Y-64631460D02*
G75*
G02X35568000Y-64231460I400000J0D01*
G01*
D10*
G04 #@! TO.C,D1*
G36*
X40798980Y-50546560D02*
X41098980Y-50546560D01*
X41098980Y-49346560D01*
X40798980Y-49346560D01*
X40798980Y-50546560D01*
G37*
X40798980Y-50546560D02*
X41098980Y-50546560D01*
X41098980Y-49346560D01*
X40798980Y-49346560D01*
X40798980Y-50546560D01*
D12*
X43173980Y-50736560D02*
X44308980Y-50736560D01*
X41473980Y-50736560D02*
X42373980Y-50736560D01*
X43173980Y-49156560D02*
X44308980Y-49156560D01*
X41273980Y-50543560D02*
X41273980Y-49349560D01*
X44308980Y-50736560D02*
X44308980Y-49156560D01*
X41473980Y-49156560D02*
X42373980Y-49156560D01*
X41273980Y-49349560D02*
X41473980Y-49156560D01*
X41273980Y-50543560D02*
X41473980Y-50736560D01*
G04 #@! TO.C,C6*
X52372260Y-65618420D02*
X51637260Y-65618420D01*
X49702260Y-64438420D02*
X49702260Y-65218420D01*
X52772260Y-64438420D02*
X52772260Y-65218420D01*
X50837260Y-65618420D02*
X50102260Y-65618420D01*
X50837260Y-64038420D02*
X50102260Y-64038420D01*
X52372260Y-64038420D02*
X51637260Y-64038420D01*
X50102260Y-65618420D02*
G75*
G02X49702260Y-65218420I0J400000D01*
G01*
X49702260Y-64438420D02*
G75*
G02X50102260Y-64038420I400000J0D01*
G01*
X52372260Y-64038420D02*
G75*
G02X52772260Y-64438420I0J-400000D01*
G01*
X52772260Y-65218420D02*
G75*
G02X52372260Y-65618420I-400000J0D01*
G01*
D10*
G04 #@! TO.C,AM312*
X48485691Y-59382568D02*
G75*
G03X48485691Y-59382568I-4550000J0D01*
G01*
D12*
G04 #@! TO.C,C4*
X35537520Y-60589100D02*
X36272520Y-60589100D01*
X38207520Y-61769100D02*
X38207520Y-60989100D01*
X35137520Y-61769100D02*
X35137520Y-60989100D01*
X37072520Y-60589100D02*
X37807520Y-60589100D01*
X37072520Y-62169100D02*
X37807520Y-62169100D01*
X35537520Y-62169100D02*
X36272520Y-62169100D01*
X37807520Y-60589100D02*
G75*
G02X38207520Y-60989100I0J-400000D01*
G01*
X38207520Y-61769100D02*
G75*
G02X37807520Y-62169100I-400000J0D01*
G01*
X35537520Y-62169100D02*
G75*
G02X35137520Y-61769100I0J400000D01*
G01*
X35137520Y-60989100D02*
G75*
G02X35537520Y-60589100I400000J0D01*
G01*
G04 #@! TO.C,R3*
X35150220Y-62400120D02*
X36285220Y-62400120D01*
X38220220Y-63980120D02*
X38220220Y-62400120D01*
X35150220Y-63980120D02*
X35150220Y-62400120D01*
X37085220Y-62400120D02*
X38220220Y-62400120D01*
X35150220Y-63980120D02*
X36285220Y-63980120D01*
X37085220Y-63980120D02*
X38220220Y-63980120D01*
G04 #@! TO.C,C3*
X35552760Y-55178900D02*
X36287760Y-55178900D01*
X38222760Y-56358900D02*
X38222760Y-55578900D01*
X35152760Y-56358900D02*
X35152760Y-55578900D01*
X37087760Y-55178900D02*
X37822760Y-55178900D01*
X37087760Y-56758900D02*
X37822760Y-56758900D01*
X35552760Y-56758900D02*
X36287760Y-56758900D01*
X37822760Y-55178900D02*
G75*
G02X38222760Y-55578900I0J-400000D01*
G01*
X38222760Y-56358900D02*
G75*
G02X37822760Y-56758900I-400000J0D01*
G01*
X35552760Y-56758900D02*
G75*
G02X35152760Y-56358900I0J400000D01*
G01*
X35152760Y-55578900D02*
G75*
G02X35552760Y-55178900I400000J0D01*
G01*
G04 #@! TO.C,C2*
X35555300Y-56987380D02*
X36290300Y-56987380D01*
X38225300Y-58167380D02*
X38225300Y-57387380D01*
X35155300Y-58167380D02*
X35155300Y-57387380D01*
X37090300Y-56987380D02*
X37825300Y-56987380D01*
X37090300Y-58567380D02*
X37825300Y-58567380D01*
X35555300Y-58567380D02*
X36290300Y-58567380D01*
X37825300Y-56987380D02*
G75*
G02X38225300Y-57387380I0J-400000D01*
G01*
X38225300Y-58167380D02*
G75*
G02X37825300Y-58567380I-400000J0D01*
G01*
X35555300Y-58567380D02*
G75*
G02X35155300Y-58167380I0J400000D01*
G01*
X35155300Y-57387380D02*
G75*
G02X35555300Y-56987380I400000J0D01*
G01*
G04 #@! TO.C,R2*
X38215140Y-60355540D02*
X37080140Y-60355540D01*
X35145140Y-58775540D02*
X35145140Y-60355540D01*
X38215140Y-58775540D02*
X38215140Y-60355540D01*
X36280140Y-60355540D02*
X35145140Y-60355540D01*
X38215140Y-58775540D02*
X37080140Y-58775540D01*
X36280140Y-58775540D02*
X35145140Y-58775540D01*
G04 #@! TO.C,R1*
X44744180Y-49123540D02*
X45879180Y-49123540D01*
X47814180Y-50703540D02*
X47814180Y-49123540D01*
X44744180Y-50703540D02*
X44744180Y-49123540D01*
X46679180Y-49123540D02*
X47814180Y-49123540D01*
X44744180Y-50703540D02*
X45879180Y-50703540D01*
X46679180Y-50703540D02*
X47814180Y-50703540D01*
G04 #@! TO.C,C7*
D10*
X33920133Y-50499282D02*
X33872514Y-50546901D01*
X33729657Y-50594520D01*
X33634419Y-50594520D01*
X33491561Y-50546901D01*
X33396323Y-50451663D01*
X33348704Y-50356425D01*
X33301085Y-50165949D01*
X33301085Y-50023092D01*
X33348704Y-49832616D01*
X33396323Y-49737378D01*
X33491561Y-49642140D01*
X33634419Y-49594520D01*
X33729657Y-49594520D01*
X33872514Y-49642140D01*
X33920133Y-49689759D01*
X34253466Y-49594520D02*
X34920133Y-49594520D01*
X34491561Y-50594520D01*
G04 #@! TO.C,R7*
X33958233Y-52596040D02*
X33624900Y-52119850D01*
X33386804Y-52596040D02*
X33386804Y-51596040D01*
X33767757Y-51596040D01*
X33862995Y-51643660D01*
X33910614Y-51691279D01*
X33958233Y-51786517D01*
X33958233Y-51929374D01*
X33910614Y-52024612D01*
X33862995Y-52072231D01*
X33767757Y-52119850D01*
X33386804Y-52119850D01*
X34291566Y-51596040D02*
X34958233Y-51596040D01*
X34529661Y-52596040D01*
G04 #@! TO.C,R6*
X33976013Y-54394360D02*
X33642680Y-53918170D01*
X33404584Y-54394360D02*
X33404584Y-53394360D01*
X33785537Y-53394360D01*
X33880775Y-53441980D01*
X33928394Y-53489599D01*
X33976013Y-53584837D01*
X33976013Y-53727694D01*
X33928394Y-53822932D01*
X33880775Y-53870551D01*
X33785537Y-53918170D01*
X33404584Y-53918170D01*
X34833156Y-53394360D02*
X34642680Y-53394360D01*
X34547441Y-53441980D01*
X34499822Y-53489599D01*
X34404584Y-53632456D01*
X34356965Y-53822932D01*
X34356965Y-54203884D01*
X34404584Y-54299122D01*
X34452203Y-54346741D01*
X34547441Y-54394360D01*
X34737918Y-54394360D01*
X34833156Y-54346741D01*
X34880775Y-54299122D01*
X34928394Y-54203884D01*
X34928394Y-53965789D01*
X34880775Y-53870551D01*
X34833156Y-53822932D01*
X34737918Y-53775313D01*
X34547441Y-53775313D01*
X34452203Y-53822932D01*
X34404584Y-53870551D01*
X34356965Y-53965789D01*
G04 #@! TO.C,L1*
X53894693Y-51856900D02*
X53418502Y-51856900D01*
X53418502Y-50856900D01*
X54751836Y-51856900D02*
X54180407Y-51856900D01*
X54466121Y-51856900D02*
X54466121Y-50856900D01*
X54370883Y-50999758D01*
X54275645Y-51094996D01*
X54180407Y-51142615D01*
G04 #@! TO.C,C5*
X53648313Y-54443902D02*
X53600694Y-54491521D01*
X53457837Y-54539140D01*
X53362599Y-54539140D01*
X53219741Y-54491521D01*
X53124503Y-54396283D01*
X53076884Y-54301045D01*
X53029265Y-54110569D01*
X53029265Y-53967712D01*
X53076884Y-53777236D01*
X53124503Y-53681998D01*
X53219741Y-53586760D01*
X53362599Y-53539140D01*
X53457837Y-53539140D01*
X53600694Y-53586760D01*
X53648313Y-53634379D01*
X54553075Y-53539140D02*
X54076884Y-53539140D01*
X54029265Y-54015331D01*
X54076884Y-53967712D01*
X54172122Y-53920093D01*
X54410218Y-53920093D01*
X54505456Y-53967712D01*
X54553075Y-54015331D01*
X54600694Y-54110569D01*
X54600694Y-54348664D01*
X54553075Y-54443902D01*
X54505456Y-54491521D01*
X54410218Y-54539140D01*
X54172122Y-54539140D01*
X54076884Y-54491521D01*
X54029265Y-54443902D01*
G04 #@! TO.C,R4*
X53607673Y-61747660D02*
X53274340Y-61271470D01*
X53036244Y-61747660D02*
X53036244Y-60747660D01*
X53417197Y-60747660D01*
X53512435Y-60795280D01*
X53560054Y-60842899D01*
X53607673Y-60938137D01*
X53607673Y-61080994D01*
X53560054Y-61176232D01*
X53512435Y-61223851D01*
X53417197Y-61271470D01*
X53036244Y-61271470D01*
X54464816Y-61080994D02*
X54464816Y-61747660D01*
X54226720Y-60700041D02*
X53988625Y-61414327D01*
X54607673Y-61414327D01*
G04 #@! TO.C,R5*
X53633073Y-63393580D02*
X53299740Y-62917390D01*
X53061644Y-63393580D02*
X53061644Y-62393580D01*
X53442597Y-62393580D01*
X53537835Y-62441200D01*
X53585454Y-62488819D01*
X53633073Y-62584057D01*
X53633073Y-62726914D01*
X53585454Y-62822152D01*
X53537835Y-62869771D01*
X53442597Y-62917390D01*
X53061644Y-62917390D01*
X54537835Y-62393580D02*
X54061644Y-62393580D01*
X54014025Y-62869771D01*
X54061644Y-62822152D01*
X54156882Y-62774533D01*
X54394978Y-62774533D01*
X54490216Y-62822152D01*
X54537835Y-62869771D01*
X54585454Y-62965009D01*
X54585454Y-63203104D01*
X54537835Y-63298342D01*
X54490216Y-63345961D01*
X54394978Y-63393580D01*
X54156882Y-63393580D01*
X54061644Y-63345961D01*
X54014025Y-63298342D01*
G04 #@! TO.C,C1*
X33983633Y-65513222D02*
X33936014Y-65560841D01*
X33793157Y-65608460D01*
X33697919Y-65608460D01*
X33555061Y-65560841D01*
X33459823Y-65465603D01*
X33412204Y-65370365D01*
X33364585Y-65179889D01*
X33364585Y-65037032D01*
X33412204Y-64846556D01*
X33459823Y-64751318D01*
X33555061Y-64656080D01*
X33697919Y-64608460D01*
X33793157Y-64608460D01*
X33936014Y-64656080D01*
X33983633Y-64703699D01*
X34936014Y-65608460D02*
X34364585Y-65608460D01*
X34650300Y-65608460D02*
X34650300Y-64608460D01*
X34555061Y-64751318D01*
X34459823Y-64846556D01*
X34364585Y-64894175D01*
G04 #@! TO.C,D1*
X42007564Y-48808900D02*
X42007564Y-47808900D01*
X42245660Y-47808900D01*
X42388517Y-47856520D01*
X42483755Y-47951758D01*
X42531374Y-48046996D01*
X42578993Y-48237472D01*
X42578993Y-48380329D01*
X42531374Y-48570805D01*
X42483755Y-48666043D01*
X42388517Y-48761281D01*
X42245660Y-48808900D01*
X42007564Y-48808900D01*
X43531374Y-48808900D02*
X42959945Y-48808900D01*
X43245660Y-48808900D02*
X43245660Y-47808900D01*
X43150421Y-47951758D01*
X43055183Y-48046996D01*
X42959945Y-48094615D01*
G04 #@! TO.C,C6*
X53577193Y-65251602D02*
X53529574Y-65299221D01*
X53386717Y-65346840D01*
X53291479Y-65346840D01*
X53148621Y-65299221D01*
X53053383Y-65203983D01*
X53005764Y-65108745D01*
X52958145Y-64918269D01*
X52958145Y-64775412D01*
X53005764Y-64584936D01*
X53053383Y-64489698D01*
X53148621Y-64394460D01*
X53291479Y-64346840D01*
X53386717Y-64346840D01*
X53529574Y-64394460D01*
X53577193Y-64442079D01*
X54434336Y-64346840D02*
X54243860Y-64346840D01*
X54148621Y-64394460D01*
X54101002Y-64442079D01*
X54005764Y-64584936D01*
X53958145Y-64775412D01*
X53958145Y-65156364D01*
X54005764Y-65251602D01*
X54053383Y-65299221D01*
X54148621Y-65346840D01*
X54339098Y-65346840D01*
X54434336Y-65299221D01*
X54481955Y-65251602D01*
X54529574Y-65156364D01*
X54529574Y-64918269D01*
X54481955Y-64823031D01*
X54434336Y-64775412D01*
X54339098Y-64727793D01*
X54148621Y-64727793D01*
X54053383Y-64775412D01*
X54005764Y-64823031D01*
X53958145Y-64918269D01*
G04 #@! TO.C,AM312*
X43860620Y-62792140D02*
X44197338Y-62455422D01*
X43995307Y-63061514D02*
X43523903Y-62118705D01*
X44466712Y-62590109D01*
X44702414Y-62354407D02*
X43995307Y-61647300D01*
X44736086Y-61916674D01*
X44466712Y-61175896D01*
X45173819Y-61883003D01*
X44736086Y-60906522D02*
X45173819Y-60468789D01*
X45207490Y-60973865D01*
X45308506Y-60872850D01*
X45409521Y-60839178D01*
X45476864Y-60839178D01*
X45577880Y-60872850D01*
X45746238Y-61041209D01*
X45779910Y-61142224D01*
X45779910Y-61209568D01*
X45746238Y-61310583D01*
X45544208Y-61512613D01*
X45443193Y-61546285D01*
X45375849Y-61546285D01*
X46554360Y-60502461D02*
X46150299Y-60906522D01*
X46352330Y-60704491D02*
X45645223Y-59997385D01*
X45678895Y-60165743D01*
X45678895Y-60300430D01*
X45645223Y-60401446D01*
X46183971Y-59593324D02*
X46183971Y-59525980D01*
X46217643Y-59424965D01*
X46386002Y-59256606D01*
X46487017Y-59222934D01*
X46554360Y-59222934D01*
X46655376Y-59256606D01*
X46722719Y-59323950D01*
X46790063Y-59458637D01*
X46790063Y-60266759D01*
X47227795Y-59829026D01*
G04 #@! TO.C,C4*
X33942993Y-61840382D02*
X33895374Y-61888001D01*
X33752517Y-61935620D01*
X33657279Y-61935620D01*
X33514421Y-61888001D01*
X33419183Y-61792763D01*
X33371564Y-61697525D01*
X33323945Y-61507049D01*
X33323945Y-61364192D01*
X33371564Y-61173716D01*
X33419183Y-61078478D01*
X33514421Y-60983240D01*
X33657279Y-60935620D01*
X33752517Y-60935620D01*
X33895374Y-60983240D01*
X33942993Y-61030859D01*
X34800136Y-61268954D02*
X34800136Y-61935620D01*
X34562040Y-60888001D02*
X34323945Y-61602287D01*
X34942993Y-61602287D01*
G04 #@! TO.C,R3*
X33988713Y-63751720D02*
X33655380Y-63275530D01*
X33417284Y-63751720D02*
X33417284Y-62751720D01*
X33798237Y-62751720D01*
X33893475Y-62799340D01*
X33941094Y-62846959D01*
X33988713Y-62942197D01*
X33988713Y-63085054D01*
X33941094Y-63180292D01*
X33893475Y-63227911D01*
X33798237Y-63275530D01*
X33417284Y-63275530D01*
X34322046Y-62751720D02*
X34941094Y-62751720D01*
X34607760Y-63132673D01*
X34750618Y-63132673D01*
X34845856Y-63180292D01*
X34893475Y-63227911D01*
X34941094Y-63323149D01*
X34941094Y-63561244D01*
X34893475Y-63656482D01*
X34845856Y-63704101D01*
X34750618Y-63751720D01*
X34464903Y-63751720D01*
X34369665Y-63704101D01*
X34322046Y-63656482D01*
G04 #@! TO.C,C3*
X33963313Y-56475902D02*
X33915694Y-56523521D01*
X33772837Y-56571140D01*
X33677599Y-56571140D01*
X33534741Y-56523521D01*
X33439503Y-56428283D01*
X33391884Y-56333045D01*
X33344265Y-56142569D01*
X33344265Y-55999712D01*
X33391884Y-55809236D01*
X33439503Y-55713998D01*
X33534741Y-55618760D01*
X33677599Y-55571140D01*
X33772837Y-55571140D01*
X33915694Y-55618760D01*
X33963313Y-55666379D01*
X34296646Y-55571140D02*
X34915694Y-55571140D01*
X34582360Y-55952093D01*
X34725218Y-55952093D01*
X34820456Y-55999712D01*
X34868075Y-56047331D01*
X34915694Y-56142569D01*
X34915694Y-56380664D01*
X34868075Y-56475902D01*
X34820456Y-56523521D01*
X34725218Y-56571140D01*
X34439503Y-56571140D01*
X34344265Y-56523521D01*
X34296646Y-56475902D01*
G04 #@! TO.C,C2*
X33935373Y-58200562D02*
X33887754Y-58248181D01*
X33744897Y-58295800D01*
X33649659Y-58295800D01*
X33506801Y-58248181D01*
X33411563Y-58152943D01*
X33363944Y-58057705D01*
X33316325Y-57867229D01*
X33316325Y-57724372D01*
X33363944Y-57533896D01*
X33411563Y-57438658D01*
X33506801Y-57343420D01*
X33649659Y-57295800D01*
X33744897Y-57295800D01*
X33887754Y-57343420D01*
X33935373Y-57391039D01*
X34316325Y-57391039D02*
X34363944Y-57343420D01*
X34459182Y-57295800D01*
X34697278Y-57295800D01*
X34792516Y-57343420D01*
X34840135Y-57391039D01*
X34887754Y-57486277D01*
X34887754Y-57581515D01*
X34840135Y-57724372D01*
X34268706Y-58295800D01*
X34887754Y-58295800D01*
G04 #@! TO.C,R2*
X33965853Y-60139840D02*
X33632520Y-59663650D01*
X33394424Y-60139840D02*
X33394424Y-59139840D01*
X33775377Y-59139840D01*
X33870615Y-59187460D01*
X33918234Y-59235079D01*
X33965853Y-59330317D01*
X33965853Y-59473174D01*
X33918234Y-59568412D01*
X33870615Y-59616031D01*
X33775377Y-59663650D01*
X33394424Y-59663650D01*
X34346805Y-59235079D02*
X34394424Y-59187460D01*
X34489662Y-59139840D01*
X34727758Y-59139840D01*
X34822996Y-59187460D01*
X34870615Y-59235079D01*
X34918234Y-59330317D01*
X34918234Y-59425555D01*
X34870615Y-59568412D01*
X34299186Y-60139840D01*
X34918234Y-60139840D01*
G04 #@! TO.C,R1*
X46211193Y-48692060D02*
X45877860Y-48215870D01*
X45639764Y-48692060D02*
X45639764Y-47692060D01*
X46020717Y-47692060D01*
X46115955Y-47739680D01*
X46163574Y-47787299D01*
X46211193Y-47882537D01*
X46211193Y-48025394D01*
X46163574Y-48120632D01*
X46115955Y-48168251D01*
X46020717Y-48215870D01*
X45639764Y-48215870D01*
X47163574Y-48692060D02*
X46592145Y-48692060D01*
X46877860Y-48692060D02*
X46877860Y-47692060D01*
X46782621Y-47834918D01*
X46687383Y-47930156D01*
X46592145Y-47977775D01*
G04 #@! TD*
M02*
