G04 #@! TF.GenerationSoftware,KiCad,Pcbnew,(5.0.2)-1*
G04 #@! TF.CreationDate,2019-07-28T23:06:21+08:00*
G04 #@! TF.ProjectId,PIR,5049522e-6b69-4636-9164-5f7063625858,rev?*
G04 #@! TF.SameCoordinates,Original*
G04 #@! TF.FileFunction,Soldermask,Top*
G04 #@! TF.FilePolarity,Negative*
%FSLAX46Y46*%
G04 Gerber Fmt 4.6, Leading zero omitted, Abs format (unit mm)*
G04 Created by KiCad (PCBNEW (5.0.2)-1) date 2019-07-28 23:06:21*
%MOMM*%
%LPD*%
G01*
G04 APERTURE LIST*
%ADD10C,0.800000*%
%ADD11C,0.200000*%
%ADD12C,0.100000*%
G04 APERTURE END LIST*
D10*
X53696582Y-59177099D02*
X54027382Y-59177099D01*
X53694042Y-60203259D02*
X54024842Y-60203259D01*
D11*
X45958130Y-71558104D02*
X45958130Y-70758104D01*
X46415273Y-71558104D01*
X46415273Y-70758104D01*
X47253368Y-71558104D02*
X46986701Y-71177152D01*
X46796225Y-71558104D02*
X46796225Y-70758104D01*
X47100987Y-70758104D01*
X47177178Y-70796200D01*
X47215273Y-70834295D01*
X47253368Y-70910485D01*
X47253368Y-71024771D01*
X47215273Y-71100961D01*
X47177178Y-71139057D01*
X47100987Y-71177152D01*
X46796225Y-71177152D01*
X47862892Y-71139057D02*
X47596225Y-71139057D01*
X47596225Y-71558104D02*
X47596225Y-70758104D01*
X47977178Y-70758104D01*
X48281940Y-71253342D02*
X48891463Y-71253342D01*
X49272416Y-71558104D02*
X49272416Y-70758104D01*
X49539082Y-71329533D01*
X49805749Y-70758104D01*
X49805749Y-71558104D01*
X50339082Y-70758104D02*
X50491463Y-70758104D01*
X50567654Y-70796200D01*
X50643844Y-70872390D01*
X50681940Y-71024771D01*
X50681940Y-71291438D01*
X50643844Y-71443819D01*
X50567654Y-71520009D01*
X50491463Y-71558104D01*
X50339082Y-71558104D01*
X50262892Y-71520009D01*
X50186701Y-71443819D01*
X50148606Y-71291438D01*
X50148606Y-71024771D01*
X50186701Y-70872390D01*
X50262892Y-70796200D01*
X50339082Y-70758104D01*
X50910511Y-70758104D02*
X51367654Y-70758104D01*
X51139082Y-71558104D02*
X51139082Y-70758104D01*
X51634320Y-71558104D02*
X51634320Y-70758104D01*
X52167654Y-70758104D02*
X52320035Y-70758104D01*
X52396225Y-70796200D01*
X52472416Y-70872390D01*
X52510511Y-71024771D01*
X52510511Y-71291438D01*
X52472416Y-71443819D01*
X52396225Y-71520009D01*
X52320035Y-71558104D01*
X52167654Y-71558104D01*
X52091463Y-71520009D01*
X52015273Y-71443819D01*
X51977178Y-71291438D01*
X51977178Y-71024771D01*
X52015273Y-70872390D01*
X52091463Y-70796200D01*
X52167654Y-70758104D01*
X52853368Y-71558104D02*
X52853368Y-70758104D01*
X53310511Y-71558104D01*
X53310511Y-70758104D01*
X53691463Y-71253342D02*
X54300987Y-71253342D01*
X54643844Y-70834295D02*
X54681940Y-70796200D01*
X54758130Y-70758104D01*
X54948606Y-70758104D01*
X55024797Y-70796200D01*
X55062892Y-70834295D01*
X55100987Y-70910485D01*
X55100987Y-70986676D01*
X55062892Y-71100961D01*
X54605749Y-71558104D01*
X55100987Y-71558104D01*
X55443844Y-71481914D02*
X55481940Y-71520009D01*
X55443844Y-71558104D01*
X55405749Y-71520009D01*
X55443844Y-71481914D01*
X55443844Y-71558104D01*
X56243844Y-71558104D02*
X55786701Y-71558104D01*
X56015273Y-71558104D02*
X56015273Y-70758104D01*
X55939082Y-70872390D01*
X55862892Y-70948580D01*
X55786701Y-70986676D01*
X47018420Y-72757060D02*
X46942230Y-72718965D01*
X46789849Y-72718965D01*
X46713659Y-72757060D01*
X46637468Y-72833251D01*
X46599373Y-72909441D01*
X46599373Y-73061822D01*
X46637468Y-73138013D01*
X46713659Y-73214203D01*
X46789849Y-73252299D01*
X46942230Y-73252299D01*
X47018420Y-73214203D01*
X46866040Y-72452299D02*
X46675563Y-72490394D01*
X46485087Y-72604680D01*
X46370801Y-72795156D01*
X46332706Y-72985632D01*
X46370801Y-73176108D01*
X46485087Y-73366584D01*
X46675563Y-73480870D01*
X46866040Y-73518965D01*
X47056516Y-73480870D01*
X47246992Y-73366584D01*
X47361278Y-73176108D01*
X47399373Y-72985632D01*
X47361278Y-72795156D01*
X47246992Y-72604680D01*
X47056516Y-72490394D01*
X46866040Y-72452299D01*
X47742230Y-73366584D02*
X47742230Y-72566584D01*
X48008897Y-73138013D01*
X48275563Y-72566584D01*
X48275563Y-73366584D01*
X48580325Y-72833251D02*
X48770801Y-73366584D01*
X48961278Y-72833251D02*
X48770801Y-73366584D01*
X48694611Y-73557060D01*
X48656516Y-73595156D01*
X48580325Y-73633251D01*
X49227944Y-73328489D02*
X49304135Y-73366584D01*
X49456516Y-73366584D01*
X49532706Y-73328489D01*
X49570801Y-73252299D01*
X49570801Y-73214203D01*
X49532706Y-73138013D01*
X49456516Y-73099918D01*
X49342230Y-73099918D01*
X49266040Y-73061822D01*
X49227944Y-72985632D01*
X49227944Y-72947537D01*
X49266040Y-72871346D01*
X49342230Y-72833251D01*
X49456516Y-72833251D01*
X49532706Y-72871346D01*
X50218420Y-73328489D02*
X50142230Y-73366584D01*
X49989849Y-73366584D01*
X49913659Y-73328489D01*
X49875563Y-73252299D01*
X49875563Y-72947537D01*
X49913659Y-72871346D01*
X49989849Y-72833251D01*
X50142230Y-72833251D01*
X50218420Y-72871346D01*
X50256516Y-72947537D01*
X50256516Y-73023727D01*
X49875563Y-73099918D01*
X50599373Y-72833251D02*
X50599373Y-73366584D01*
X50599373Y-72909441D02*
X50637468Y-72871346D01*
X50713659Y-72833251D01*
X50827944Y-72833251D01*
X50904135Y-72871346D01*
X50942230Y-72947537D01*
X50942230Y-73366584D01*
X51285087Y-73328489D02*
X51361278Y-73366584D01*
X51513659Y-73366584D01*
X51589849Y-73328489D01*
X51627944Y-73252299D01*
X51627944Y-73214203D01*
X51589849Y-73138013D01*
X51513659Y-73099918D01*
X51399373Y-73099918D01*
X51323182Y-73061822D01*
X51285087Y-72985632D01*
X51285087Y-72947537D01*
X51323182Y-72871346D01*
X51399373Y-72833251D01*
X51513659Y-72833251D01*
X51589849Y-72871346D01*
X52085087Y-73366584D02*
X52008897Y-73328489D01*
X51970801Y-73290394D01*
X51932706Y-73214203D01*
X51932706Y-72985632D01*
X51970801Y-72909441D01*
X52008897Y-72871346D01*
X52085087Y-72833251D01*
X52199373Y-72833251D01*
X52275563Y-72871346D01*
X52313659Y-72909441D01*
X52351754Y-72985632D01*
X52351754Y-73214203D01*
X52313659Y-73290394D01*
X52275563Y-73328489D01*
X52199373Y-73366584D01*
X52085087Y-73366584D01*
X52694611Y-73366584D02*
X52694611Y-72833251D01*
X52694611Y-72985632D02*
X52732706Y-72909441D01*
X52770801Y-72871346D01*
X52846992Y-72833251D01*
X52923182Y-72833251D01*
X53189849Y-73290394D02*
X53227944Y-73328489D01*
X53189849Y-73366584D01*
X53151754Y-73328489D01*
X53189849Y-73290394D01*
X53189849Y-73366584D01*
X53570801Y-72833251D02*
X53570801Y-73633251D01*
X53570801Y-72871346D02*
X53646992Y-72833251D01*
X53799373Y-72833251D01*
X53875563Y-72871346D01*
X53913659Y-72909441D01*
X53951754Y-72985632D01*
X53951754Y-73214203D01*
X53913659Y-73290394D01*
X53875563Y-73328489D01*
X53799373Y-73366584D01*
X53646992Y-73366584D01*
X53570801Y-73328489D01*
X54637468Y-72833251D02*
X54637468Y-73366584D01*
X54294611Y-72833251D02*
X54294611Y-73252299D01*
X54332706Y-73328489D01*
X54408897Y-73366584D01*
X54523182Y-73366584D01*
X54599373Y-73328489D01*
X54637468Y-73290394D01*
X55018420Y-73366584D02*
X55018420Y-72566584D01*
X55018420Y-72871346D02*
X55094611Y-72833251D01*
X55246992Y-72833251D01*
X55323182Y-72871346D01*
X55361278Y-72909441D01*
X55399373Y-72985632D01*
X55399373Y-73214203D01*
X55361278Y-73290394D01*
X55323182Y-73328489D01*
X55246992Y-73366584D01*
X55094611Y-73366584D01*
X55018420Y-73328489D01*
D12*
G36*
X44416872Y-72264240D02*
X44540394Y-72276406D01*
X44738508Y-72336504D01*
X44921091Y-72434096D01*
X45081127Y-72565434D01*
X45212465Y-72725470D01*
X45310057Y-72908053D01*
X45370155Y-73106167D01*
X45390447Y-73312199D01*
X45370155Y-73518231D01*
X45310057Y-73716345D01*
X45212465Y-73898928D01*
X45081127Y-74058964D01*
X44921091Y-74190302D01*
X44738508Y-74287894D01*
X44540394Y-74347992D01*
X44416872Y-74360158D01*
X44385993Y-74363199D01*
X43282731Y-74363199D01*
X43251852Y-74360158D01*
X43128330Y-74347992D01*
X42930216Y-74287894D01*
X42747633Y-74190302D01*
X42587597Y-74058964D01*
X42456259Y-73898928D01*
X42358667Y-73716345D01*
X42298569Y-73518231D01*
X42278277Y-73312199D01*
X42298569Y-73106167D01*
X42358667Y-72908053D01*
X42456259Y-72725470D01*
X42587597Y-72565434D01*
X42747633Y-72434096D01*
X42930216Y-72336504D01*
X43128330Y-72276406D01*
X43251852Y-72264240D01*
X43282731Y-72261199D01*
X44385993Y-72261199D01*
X44416872Y-72264240D01*
X44416872Y-72264240D01*
G37*
G36*
X40840450Y-73054443D02*
X40852159Y-73057995D01*
X40862942Y-73063759D01*
X40872400Y-73071520D01*
X40880161Y-73080978D01*
X40885925Y-73091761D01*
X40889477Y-73103470D01*
X40891280Y-73121778D01*
X40891280Y-73485502D01*
X40889477Y-73503810D01*
X40885925Y-73515519D01*
X40880161Y-73526302D01*
X40872400Y-73535760D01*
X40862942Y-73543521D01*
X40852159Y-73549285D01*
X40840450Y-73552837D01*
X40822142Y-73554640D01*
X39858418Y-73554640D01*
X39840110Y-73552837D01*
X39828401Y-73549285D01*
X39817618Y-73543521D01*
X39808160Y-73535760D01*
X39800399Y-73526302D01*
X39794635Y-73515519D01*
X39791083Y-73503810D01*
X39789280Y-73485502D01*
X39789280Y-73121778D01*
X39791083Y-73103470D01*
X39794635Y-73091761D01*
X39800399Y-73080978D01*
X39808160Y-73071520D01*
X39817618Y-73063759D01*
X39828401Y-73057995D01*
X39840110Y-73054443D01*
X39858418Y-73052640D01*
X40822142Y-73052640D01*
X40840450Y-73054443D01*
X40840450Y-73054443D01*
G37*
G36*
X37740450Y-73054443D02*
X37752159Y-73057995D01*
X37762942Y-73063759D01*
X37772400Y-73071520D01*
X37780161Y-73080978D01*
X37785925Y-73091761D01*
X37789477Y-73103470D01*
X37791280Y-73121778D01*
X37791280Y-73485502D01*
X37789477Y-73503810D01*
X37785925Y-73515519D01*
X37780161Y-73526302D01*
X37772400Y-73535760D01*
X37762942Y-73543521D01*
X37752159Y-73549285D01*
X37740450Y-73552837D01*
X37722142Y-73554640D01*
X36758418Y-73554640D01*
X36740110Y-73552837D01*
X36728401Y-73549285D01*
X36717618Y-73543521D01*
X36708160Y-73535760D01*
X36700399Y-73526302D01*
X36694635Y-73515519D01*
X36691083Y-73503810D01*
X36689280Y-73485502D01*
X36689280Y-73121778D01*
X36691083Y-73103470D01*
X36694635Y-73091761D01*
X36700399Y-73080978D01*
X36708160Y-73071520D01*
X36717618Y-73063759D01*
X36728401Y-73057995D01*
X36740110Y-73054443D01*
X36758418Y-73052640D01*
X37722142Y-73052640D01*
X37740450Y-73054443D01*
X37740450Y-73054443D01*
G37*
G36*
X37740450Y-72054443D02*
X37752159Y-72057995D01*
X37762942Y-72063759D01*
X37772400Y-72071520D01*
X37780161Y-72080978D01*
X37785925Y-72091761D01*
X37789477Y-72103470D01*
X37791280Y-72121778D01*
X37791280Y-72485502D01*
X37789477Y-72503810D01*
X37785925Y-72515519D01*
X37780161Y-72526302D01*
X37772400Y-72535760D01*
X37762942Y-72543521D01*
X37752159Y-72549285D01*
X37740450Y-72552837D01*
X37722142Y-72554640D01*
X36758418Y-72554640D01*
X36740110Y-72552837D01*
X36728401Y-72549285D01*
X36717618Y-72543521D01*
X36708160Y-72535760D01*
X36700399Y-72526302D01*
X36694635Y-72515519D01*
X36691083Y-72503810D01*
X36689280Y-72485502D01*
X36689280Y-72121778D01*
X36691083Y-72103470D01*
X36694635Y-72091761D01*
X36700399Y-72080978D01*
X36708160Y-72071520D01*
X36717618Y-72063759D01*
X36728401Y-72057995D01*
X36740110Y-72054443D01*
X36758418Y-72052640D01*
X37722142Y-72052640D01*
X37740450Y-72054443D01*
X37740450Y-72054443D01*
G37*
G36*
X40840450Y-72054443D02*
X40852159Y-72057995D01*
X40862942Y-72063759D01*
X40872400Y-72071520D01*
X40880161Y-72080978D01*
X40885925Y-72091761D01*
X40889477Y-72103470D01*
X40891280Y-72121778D01*
X40891280Y-72485502D01*
X40889477Y-72503810D01*
X40885925Y-72515519D01*
X40880161Y-72526302D01*
X40872400Y-72535760D01*
X40862942Y-72543521D01*
X40852159Y-72549285D01*
X40840450Y-72552837D01*
X40822142Y-72554640D01*
X39858418Y-72554640D01*
X39840110Y-72552837D01*
X39828401Y-72549285D01*
X39817618Y-72543521D01*
X39808160Y-72535760D01*
X39800399Y-72526302D01*
X39794635Y-72515519D01*
X39791083Y-72503810D01*
X39789280Y-72485502D01*
X39789280Y-72121778D01*
X39791083Y-72103470D01*
X39794635Y-72091761D01*
X39800399Y-72080978D01*
X39808160Y-72071520D01*
X39817618Y-72063759D01*
X39828401Y-72057995D01*
X39840110Y-72054443D01*
X39858418Y-72052640D01*
X40822142Y-72052640D01*
X40840450Y-72054443D01*
X40840450Y-72054443D01*
G37*
G36*
X40840450Y-71054443D02*
X40852159Y-71057995D01*
X40862942Y-71063759D01*
X40872400Y-71071520D01*
X40880161Y-71080978D01*
X40885925Y-71091761D01*
X40889477Y-71103470D01*
X40891280Y-71121778D01*
X40891280Y-71485502D01*
X40889477Y-71503810D01*
X40885925Y-71515519D01*
X40880161Y-71526302D01*
X40872400Y-71535760D01*
X40862942Y-71543521D01*
X40852159Y-71549285D01*
X40840450Y-71552837D01*
X40822142Y-71554640D01*
X39858418Y-71554640D01*
X39840110Y-71552837D01*
X39828401Y-71549285D01*
X39817618Y-71543521D01*
X39808160Y-71535760D01*
X39800399Y-71526302D01*
X39794635Y-71515519D01*
X39791083Y-71503810D01*
X39789280Y-71485502D01*
X39789280Y-71121778D01*
X39791083Y-71103470D01*
X39794635Y-71091761D01*
X39800399Y-71080978D01*
X39808160Y-71071520D01*
X39817618Y-71063759D01*
X39828401Y-71057995D01*
X39840110Y-71054443D01*
X39858418Y-71052640D01*
X40822142Y-71052640D01*
X40840450Y-71054443D01*
X40840450Y-71054443D01*
G37*
G36*
X37740450Y-71054443D02*
X37752159Y-71057995D01*
X37762942Y-71063759D01*
X37772400Y-71071520D01*
X37780161Y-71080978D01*
X37785925Y-71091761D01*
X37789477Y-71103470D01*
X37791280Y-71121778D01*
X37791280Y-71485502D01*
X37789477Y-71503810D01*
X37785925Y-71515519D01*
X37780161Y-71526302D01*
X37772400Y-71535760D01*
X37762942Y-71543521D01*
X37752159Y-71549285D01*
X37740450Y-71552837D01*
X37722142Y-71554640D01*
X36758418Y-71554640D01*
X36740110Y-71552837D01*
X36728401Y-71549285D01*
X36717618Y-71543521D01*
X36708160Y-71535760D01*
X36700399Y-71526302D01*
X36694635Y-71515519D01*
X36691083Y-71503810D01*
X36689280Y-71485502D01*
X36689280Y-71121778D01*
X36691083Y-71103470D01*
X36694635Y-71091761D01*
X36700399Y-71080978D01*
X36708160Y-71071520D01*
X36717618Y-71063759D01*
X36728401Y-71057995D01*
X36740110Y-71054443D01*
X36758418Y-71052640D01*
X37722142Y-71052640D01*
X37740450Y-71054443D01*
X37740450Y-71054443D01*
G37*
G36*
X35341524Y-68199741D02*
X35489484Y-68261029D01*
X35622640Y-68350001D01*
X35735880Y-68463241D01*
X35824852Y-68596397D01*
X35886140Y-68744357D01*
X35917382Y-68901424D01*
X35917382Y-69061574D01*
X35886140Y-69218641D01*
X35824852Y-69366601D01*
X35735880Y-69499757D01*
X35622640Y-69612997D01*
X35489484Y-69701969D01*
X35341524Y-69763257D01*
X35184457Y-69794499D01*
X35024307Y-69794499D01*
X34867240Y-69763257D01*
X34719280Y-69701969D01*
X34586124Y-69612997D01*
X34472884Y-69499757D01*
X34383912Y-69366601D01*
X34322624Y-69218641D01*
X34291382Y-69061574D01*
X34291382Y-68901424D01*
X34322624Y-68744357D01*
X34383912Y-68596397D01*
X34472884Y-68463241D01*
X34586124Y-68350001D01*
X34719280Y-68261029D01*
X34867240Y-68199741D01*
X35024307Y-68168499D01*
X35184457Y-68168499D01*
X35341524Y-68199741D01*
X35341524Y-68199741D01*
G37*
G36*
X52611524Y-68199741D02*
X52759484Y-68261029D01*
X52892640Y-68350001D01*
X53005880Y-68463241D01*
X53094852Y-68596397D01*
X53156140Y-68744357D01*
X53187382Y-68901424D01*
X53187382Y-69061574D01*
X53156140Y-69218641D01*
X53094852Y-69366601D01*
X53005880Y-69499757D01*
X52892640Y-69612997D01*
X52759484Y-69701969D01*
X52611524Y-69763257D01*
X52454457Y-69794499D01*
X52294307Y-69794499D01*
X52137240Y-69763257D01*
X51989280Y-69701969D01*
X51856124Y-69612997D01*
X51742884Y-69499757D01*
X51653912Y-69366601D01*
X51592624Y-69218641D01*
X51561382Y-69061574D01*
X51561382Y-68901424D01*
X51592624Y-68744357D01*
X51653912Y-68596397D01*
X51742884Y-68463241D01*
X51856124Y-68350001D01*
X51989280Y-68261029D01*
X52137240Y-68199741D01*
X52294307Y-68168499D01*
X52454457Y-68168499D01*
X52611524Y-68199741D01*
X52611524Y-68199741D01*
G37*
G36*
X46058740Y-64754788D02*
X46058743Y-64754789D01*
X46096631Y-64766282D01*
X46131550Y-64784946D01*
X46162156Y-64810064D01*
X46187274Y-64840670D01*
X46204806Y-64873470D01*
X46205937Y-64875587D01*
X46217432Y-64913480D01*
X46221312Y-64952880D01*
X46217432Y-64992280D01*
X46217431Y-64992283D01*
X46205938Y-65030171D01*
X46187274Y-65065090D01*
X46162156Y-65095696D01*
X46162154Y-65095698D01*
X46149292Y-65106253D01*
X46131965Y-65123580D01*
X46118351Y-65143954D01*
X46108973Y-65166593D01*
X46104192Y-65190626D01*
X46104192Y-65215131D01*
X46108972Y-65239164D01*
X46118349Y-65261803D01*
X46131963Y-65282178D01*
X46149290Y-65299505D01*
X46162156Y-65310064D01*
X46187274Y-65340670D01*
X46202641Y-65369420D01*
X46205937Y-65375587D01*
X46217432Y-65413480D01*
X46221312Y-65452880D01*
X46217432Y-65492280D01*
X46217431Y-65492283D01*
X46205938Y-65530171D01*
X46187274Y-65565090D01*
X46162156Y-65595696D01*
X46162154Y-65595698D01*
X46149292Y-65606253D01*
X46131965Y-65623580D01*
X46118351Y-65643954D01*
X46108973Y-65666593D01*
X46104192Y-65690626D01*
X46104192Y-65715131D01*
X46108972Y-65739164D01*
X46118349Y-65761803D01*
X46131963Y-65782178D01*
X46149290Y-65799505D01*
X46162156Y-65810064D01*
X46187274Y-65840670D01*
X46204806Y-65873470D01*
X46205937Y-65875587D01*
X46217432Y-65913480D01*
X46221312Y-65952880D01*
X46217432Y-65992280D01*
X46217431Y-65992283D01*
X46205938Y-66030171D01*
X46187274Y-66065090D01*
X46162156Y-66095696D01*
X46131550Y-66120814D01*
X46096631Y-66139478D01*
X46065795Y-66148832D01*
X46058740Y-66150972D01*
X46029213Y-66153880D01*
X45009467Y-66153880D01*
X44979940Y-66150972D01*
X44972885Y-66148832D01*
X44942049Y-66139478D01*
X44907130Y-66120814D01*
X44876524Y-66095696D01*
X44851406Y-66065090D01*
X44832742Y-66030171D01*
X44821249Y-65992283D01*
X44821248Y-65992280D01*
X44817368Y-65952880D01*
X44821248Y-65913480D01*
X44832743Y-65875587D01*
X44833874Y-65873470D01*
X44851406Y-65840670D01*
X44876524Y-65810064D01*
X44889390Y-65799505D01*
X44906715Y-65782180D01*
X44920329Y-65761806D01*
X44929707Y-65739167D01*
X44934488Y-65715134D01*
X44934488Y-65690629D01*
X44929708Y-65666596D01*
X44920331Y-65643957D01*
X44906717Y-65623582D01*
X44889388Y-65606253D01*
X44876526Y-65595698D01*
X44876524Y-65595696D01*
X44851406Y-65565090D01*
X44832742Y-65530171D01*
X44821249Y-65492283D01*
X44821248Y-65492280D01*
X44817368Y-65452880D01*
X44821248Y-65413480D01*
X44832743Y-65375587D01*
X44836039Y-65369420D01*
X44851406Y-65340670D01*
X44876524Y-65310064D01*
X44889390Y-65299505D01*
X44906715Y-65282180D01*
X44920329Y-65261806D01*
X44929707Y-65239167D01*
X44934488Y-65215134D01*
X44934488Y-65190629D01*
X44929708Y-65166596D01*
X44920331Y-65143957D01*
X44906717Y-65123582D01*
X44889388Y-65106253D01*
X44876526Y-65095698D01*
X44876524Y-65095696D01*
X44851406Y-65065090D01*
X44832742Y-65030171D01*
X44821249Y-64992283D01*
X44821248Y-64992280D01*
X44817368Y-64952880D01*
X44821248Y-64913480D01*
X44832743Y-64875587D01*
X44833874Y-64873470D01*
X44851406Y-64840670D01*
X44876524Y-64810064D01*
X44907130Y-64784946D01*
X44942049Y-64766282D01*
X44979937Y-64754789D01*
X44979940Y-64754788D01*
X45009467Y-64751880D01*
X46029213Y-64751880D01*
X46058740Y-64754788D01*
X46058740Y-64754788D01*
G37*
G36*
X43058740Y-64754788D02*
X43058743Y-64754789D01*
X43096631Y-64766282D01*
X43131550Y-64784946D01*
X43162156Y-64810064D01*
X43187274Y-64840670D01*
X43204806Y-64873470D01*
X43205937Y-64875587D01*
X43217432Y-64913480D01*
X43221312Y-64952880D01*
X43217432Y-64992280D01*
X43217431Y-64992283D01*
X43205938Y-65030171D01*
X43187274Y-65065090D01*
X43162156Y-65095696D01*
X43162154Y-65095698D01*
X43149292Y-65106253D01*
X43131965Y-65123580D01*
X43118351Y-65143954D01*
X43108973Y-65166593D01*
X43104192Y-65190626D01*
X43104192Y-65215131D01*
X43108972Y-65239164D01*
X43118349Y-65261803D01*
X43131963Y-65282178D01*
X43149290Y-65299505D01*
X43162156Y-65310064D01*
X43187274Y-65340670D01*
X43202641Y-65369420D01*
X43205937Y-65375587D01*
X43217432Y-65413480D01*
X43221312Y-65452880D01*
X43217432Y-65492280D01*
X43217431Y-65492283D01*
X43205938Y-65530171D01*
X43187274Y-65565090D01*
X43162156Y-65595696D01*
X43162154Y-65595698D01*
X43149292Y-65606253D01*
X43131965Y-65623580D01*
X43118351Y-65643954D01*
X43108973Y-65666593D01*
X43104192Y-65690626D01*
X43104192Y-65715131D01*
X43108972Y-65739164D01*
X43118349Y-65761803D01*
X43131963Y-65782178D01*
X43149290Y-65799505D01*
X43162156Y-65810064D01*
X43187274Y-65840670D01*
X43204806Y-65873470D01*
X43205937Y-65875587D01*
X43217432Y-65913480D01*
X43221312Y-65952880D01*
X43217432Y-65992280D01*
X43217431Y-65992283D01*
X43205938Y-66030171D01*
X43187274Y-66065090D01*
X43162156Y-66095696D01*
X43131550Y-66120814D01*
X43096631Y-66139478D01*
X43065795Y-66148832D01*
X43058740Y-66150972D01*
X43029213Y-66153880D01*
X42009467Y-66153880D01*
X41979940Y-66150972D01*
X41972885Y-66148832D01*
X41942049Y-66139478D01*
X41907130Y-66120814D01*
X41876524Y-66095696D01*
X41851406Y-66065090D01*
X41832742Y-66030171D01*
X41821249Y-65992283D01*
X41821248Y-65992280D01*
X41817368Y-65952880D01*
X41821248Y-65913480D01*
X41832743Y-65875587D01*
X41833874Y-65873470D01*
X41851406Y-65840670D01*
X41876524Y-65810064D01*
X41889390Y-65799505D01*
X41906715Y-65782180D01*
X41920329Y-65761806D01*
X41929707Y-65739167D01*
X41934488Y-65715134D01*
X41934488Y-65690629D01*
X41929708Y-65666596D01*
X41920331Y-65643957D01*
X41906717Y-65623582D01*
X41889388Y-65606253D01*
X41876526Y-65595698D01*
X41876524Y-65595696D01*
X41851406Y-65565090D01*
X41832742Y-65530171D01*
X41821249Y-65492283D01*
X41821248Y-65492280D01*
X41817368Y-65452880D01*
X41821248Y-65413480D01*
X41832743Y-65375587D01*
X41836039Y-65369420D01*
X41851406Y-65340670D01*
X41876524Y-65310064D01*
X41889390Y-65299505D01*
X41906715Y-65282180D01*
X41920329Y-65261806D01*
X41929707Y-65239167D01*
X41934488Y-65215134D01*
X41934488Y-65190629D01*
X41929708Y-65166596D01*
X41920331Y-65143957D01*
X41906717Y-65123582D01*
X41889388Y-65106253D01*
X41876526Y-65095698D01*
X41876524Y-65095696D01*
X41851406Y-65065090D01*
X41832742Y-65030171D01*
X41821249Y-64992283D01*
X41821248Y-64992280D01*
X41817368Y-64952880D01*
X41821248Y-64913480D01*
X41832743Y-64875587D01*
X41833874Y-64873470D01*
X41851406Y-64840670D01*
X41876524Y-64810064D01*
X41907130Y-64784946D01*
X41942049Y-64766282D01*
X41979937Y-64754789D01*
X41979940Y-64754788D01*
X42009467Y-64751880D01*
X43029213Y-64751880D01*
X43058740Y-64754788D01*
X43058740Y-64754788D01*
G37*
G36*
X36449000Y-65562460D02*
X35417000Y-65562460D01*
X35417000Y-64480460D01*
X36449000Y-64480460D01*
X36449000Y-65562460D01*
X36449000Y-65562460D01*
G37*
G36*
X37989000Y-65562460D02*
X36957000Y-65562460D01*
X36957000Y-64480460D01*
X37989000Y-64480460D01*
X37989000Y-65562460D01*
X37989000Y-65562460D01*
G37*
G36*
X50983260Y-65369420D02*
X49951260Y-65369420D01*
X49951260Y-64287420D01*
X50983260Y-64287420D01*
X50983260Y-65369420D01*
X50983260Y-65369420D01*
G37*
G36*
X52523260Y-65369420D02*
X51491260Y-65369420D01*
X51491260Y-64287420D01*
X52523260Y-64287420D01*
X52523260Y-65369420D01*
X52523260Y-65369420D01*
G37*
G36*
X37971220Y-63731120D02*
X36939220Y-63731120D01*
X36939220Y-62649120D01*
X37971220Y-62649120D01*
X37971220Y-63731120D01*
X37971220Y-63731120D01*
G37*
G36*
X36431220Y-63731120D02*
X35399220Y-63731120D01*
X35399220Y-62649120D01*
X36431220Y-62649120D01*
X36431220Y-63731120D01*
X36431220Y-63731120D01*
G37*
G36*
X52530500Y-63540620D02*
X51498500Y-63540620D01*
X51498500Y-62458620D01*
X52530500Y-62458620D01*
X52530500Y-63540620D01*
X52530500Y-63540620D01*
G37*
G36*
X50990500Y-63540620D02*
X49958500Y-63540620D01*
X49958500Y-62458620D01*
X50990500Y-62458620D01*
X50990500Y-63540620D01*
X50990500Y-63540620D01*
G37*
G36*
X37958520Y-61920100D02*
X36926520Y-61920100D01*
X36926520Y-60838100D01*
X37958520Y-60838100D01*
X37958520Y-61920100D01*
X37958520Y-61920100D01*
G37*
G36*
X36418520Y-61920100D02*
X35386520Y-61920100D01*
X35386520Y-60838100D01*
X36418520Y-60838100D01*
X36418520Y-61920100D01*
X36418520Y-61920100D01*
G37*
G36*
X42329530Y-60552636D02*
X42448001Y-60601708D01*
X42554632Y-60672957D01*
X42645302Y-60763627D01*
X42716551Y-60870258D01*
X42765623Y-60988729D01*
X42790640Y-61114500D01*
X42790640Y-61242738D01*
X42765623Y-61368509D01*
X42716551Y-61486980D01*
X42645302Y-61593611D01*
X42554632Y-61684281D01*
X42448001Y-61755530D01*
X42329530Y-61804602D01*
X42203759Y-61829619D01*
X42075521Y-61829619D01*
X41949750Y-61804602D01*
X41831279Y-61755530D01*
X41724648Y-61684281D01*
X41633978Y-61593611D01*
X41562729Y-61486980D01*
X41513657Y-61368509D01*
X41488640Y-61242738D01*
X41488640Y-61114500D01*
X41513657Y-60988729D01*
X41562729Y-60870258D01*
X41633978Y-60763627D01*
X41724648Y-60672957D01*
X41831279Y-60601708D01*
X41949750Y-60552636D01*
X42075521Y-60527619D01*
X42203759Y-60527619D01*
X42329530Y-60552636D01*
X42329530Y-60552636D01*
G37*
G36*
X52522880Y-61681340D02*
X51490880Y-61681340D01*
X51490880Y-60599340D01*
X52522880Y-60599340D01*
X52522880Y-61681340D01*
X52522880Y-61681340D01*
G37*
G36*
X50982880Y-61681340D02*
X49950880Y-61681340D01*
X49950880Y-60599340D01*
X50982880Y-60599340D01*
X50982880Y-61681340D01*
X50982880Y-61681340D01*
G37*
G36*
X36426140Y-60106540D02*
X35394140Y-60106540D01*
X35394140Y-59024540D01*
X36426140Y-59024540D01*
X36426140Y-60106540D01*
X36426140Y-60106540D01*
G37*
G36*
X37966140Y-60106540D02*
X36934140Y-60106540D01*
X36934140Y-59024540D01*
X37966140Y-59024540D01*
X37966140Y-60106540D01*
X37966140Y-60106540D01*
G37*
G36*
X52603920Y-59696640D02*
X50001920Y-59696640D01*
X50001920Y-58494640D01*
X52603920Y-58494640D01*
X52603920Y-59696640D01*
X52603920Y-59696640D01*
G37*
G36*
X37976300Y-58318380D02*
X36944300Y-58318380D01*
X36944300Y-57236380D01*
X37976300Y-57236380D01*
X37976300Y-58318380D01*
X37976300Y-58318380D01*
G37*
G36*
X36436300Y-58318380D02*
X35404300Y-58318380D01*
X35404300Y-57236380D01*
X36436300Y-57236380D01*
X36436300Y-58318380D01*
X36436300Y-58318380D01*
G37*
G36*
X45921632Y-56960534D02*
X46040103Y-57009606D01*
X46146734Y-57080855D01*
X46237404Y-57171525D01*
X46308653Y-57278156D01*
X46357725Y-57396627D01*
X46382742Y-57522398D01*
X46382742Y-57650636D01*
X46357725Y-57776407D01*
X46308653Y-57894878D01*
X46237404Y-58001509D01*
X46146734Y-58092179D01*
X46040103Y-58163428D01*
X45921632Y-58212500D01*
X45795861Y-58237517D01*
X45667623Y-58237517D01*
X45541852Y-58212500D01*
X45423381Y-58163428D01*
X45316750Y-58092179D01*
X45226080Y-58001509D01*
X45154831Y-57894878D01*
X45105759Y-57776407D01*
X45080742Y-57650636D01*
X45080742Y-57522398D01*
X45105759Y-57396627D01*
X45154831Y-57278156D01*
X45226080Y-57171525D01*
X45316750Y-57080855D01*
X45423381Y-57009606D01*
X45541852Y-56960534D01*
X45667623Y-56935517D01*
X45795861Y-56935517D01*
X45921632Y-56960534D01*
X45921632Y-56960534D01*
G37*
G36*
X42329530Y-56960534D02*
X42448001Y-57009606D01*
X42554632Y-57080855D01*
X42645302Y-57171525D01*
X42716551Y-57278156D01*
X42765623Y-57396627D01*
X42790640Y-57522398D01*
X42790640Y-57650636D01*
X42765623Y-57776407D01*
X42716551Y-57894878D01*
X42645302Y-58001509D01*
X42554632Y-58092179D01*
X42448001Y-58163428D01*
X42329530Y-58212500D01*
X42203759Y-58237517D01*
X42075521Y-58237517D01*
X41949750Y-58212500D01*
X41831279Y-58163428D01*
X41724648Y-58092179D01*
X41633978Y-58001509D01*
X41562729Y-57894878D01*
X41513657Y-57776407D01*
X41488640Y-57650636D01*
X41488640Y-57522398D01*
X41513657Y-57396627D01*
X41562729Y-57278156D01*
X41633978Y-57171525D01*
X41724648Y-57080855D01*
X41831279Y-57009606D01*
X41949750Y-56960534D01*
X42075521Y-56935517D01*
X42203759Y-56935517D01*
X42329530Y-56960534D01*
X42329530Y-56960534D01*
G37*
G36*
X52603920Y-56896640D02*
X50001920Y-56896640D01*
X50001920Y-55694640D01*
X52603920Y-55694640D01*
X52603920Y-56896640D01*
X52603920Y-56896640D01*
G37*
G36*
X36433760Y-56509900D02*
X35401760Y-56509900D01*
X35401760Y-55427900D01*
X36433760Y-55427900D01*
X36433760Y-56509900D01*
X36433760Y-56509900D01*
G37*
G36*
X37973760Y-56509900D02*
X36941760Y-56509900D01*
X36941760Y-55427900D01*
X37973760Y-55427900D01*
X37973760Y-56509900D01*
X37973760Y-56509900D01*
G37*
G36*
X52588920Y-54561720D02*
X51556920Y-54561720D01*
X51556920Y-53479720D01*
X52588920Y-53479720D01*
X52588920Y-54561720D01*
X52588920Y-54561720D01*
G37*
G36*
X51048920Y-54561720D02*
X50016920Y-54561720D01*
X50016920Y-53479720D01*
X51048920Y-53479720D01*
X51048920Y-54561720D01*
X51048920Y-54561720D01*
G37*
G36*
X36443540Y-54340740D02*
X35411540Y-54340740D01*
X35411540Y-53258740D01*
X36443540Y-53258740D01*
X36443540Y-54340740D01*
X36443540Y-54340740D01*
G37*
G36*
X37983540Y-54340740D02*
X36951540Y-54340740D01*
X36951540Y-53258740D01*
X37983540Y-53258740D01*
X37983540Y-54340740D01*
X37983540Y-54340740D01*
G37*
G36*
X44383852Y-52185720D02*
X44507374Y-52197886D01*
X44705488Y-52257984D01*
X44888071Y-52355576D01*
X45048107Y-52486914D01*
X45179445Y-52646950D01*
X45277037Y-52829533D01*
X45337135Y-53027647D01*
X45357427Y-53233679D01*
X45337135Y-53439711D01*
X45277037Y-53637825D01*
X45179445Y-53820408D01*
X45048107Y-53980444D01*
X44888071Y-54111782D01*
X44705488Y-54209374D01*
X44507374Y-54269472D01*
X44383852Y-54281638D01*
X44352973Y-54284679D01*
X43249711Y-54284679D01*
X43218832Y-54281638D01*
X43095310Y-54269472D01*
X42897196Y-54209374D01*
X42714613Y-54111782D01*
X42554577Y-53980444D01*
X42423239Y-53820408D01*
X42325647Y-53637825D01*
X42265549Y-53439711D01*
X42245257Y-53233679D01*
X42265549Y-53027647D01*
X42325647Y-52829533D01*
X42423239Y-52646950D01*
X42554577Y-52486914D01*
X42714613Y-52355576D01*
X42897196Y-52257984D01*
X43095310Y-52197886D01*
X43218832Y-52185720D01*
X43249711Y-52182679D01*
X44352973Y-52182679D01*
X44383852Y-52185720D01*
X44383852Y-52185720D01*
G37*
G36*
X50724860Y-52714080D02*
X49822860Y-52714080D01*
X49822860Y-49912080D01*
X50724860Y-49912080D01*
X50724860Y-52714080D01*
X50724860Y-52714080D01*
G37*
G36*
X52924860Y-52714080D02*
X52022860Y-52714080D01*
X52022860Y-49912080D01*
X52924860Y-49912080D01*
X52924860Y-52714080D01*
X52924860Y-52714080D01*
G37*
G36*
X36443540Y-52453520D02*
X35411540Y-52453520D01*
X35411540Y-51371520D01*
X36443540Y-51371520D01*
X36443540Y-52453520D01*
X36443540Y-52453520D01*
G37*
G36*
X37983540Y-52453520D02*
X36951540Y-52453520D01*
X36951540Y-51371520D01*
X37983540Y-51371520D01*
X37983540Y-52453520D01*
X37983540Y-52453520D01*
G37*
G36*
X36458780Y-50606940D02*
X35426780Y-50606940D01*
X35426780Y-49524940D01*
X36458780Y-49524940D01*
X36458780Y-50606940D01*
X36458780Y-50606940D01*
G37*
G36*
X37998780Y-50606940D02*
X36966780Y-50606940D01*
X36966780Y-49524940D01*
X37998780Y-49524940D01*
X37998780Y-50606940D01*
X37998780Y-50606940D01*
G37*
G36*
X44059980Y-50487560D02*
X43027980Y-50487560D01*
X43027980Y-49405560D01*
X44059980Y-49405560D01*
X44059980Y-50487560D01*
X44059980Y-50487560D01*
G37*
G36*
X42519980Y-50487560D02*
X41487980Y-50487560D01*
X41487980Y-49405560D01*
X42519980Y-49405560D01*
X42519980Y-50487560D01*
X42519980Y-50487560D01*
G37*
G36*
X47565180Y-50454540D02*
X46533180Y-50454540D01*
X46533180Y-49372540D01*
X47565180Y-49372540D01*
X47565180Y-50454540D01*
X47565180Y-50454540D01*
G37*
G36*
X46025180Y-50454540D02*
X44993180Y-50454540D01*
X44993180Y-49372540D01*
X46025180Y-49372540D01*
X46025180Y-50454540D01*
X46025180Y-50454540D01*
G37*
G36*
X52611524Y-46099741D02*
X52759484Y-46161029D01*
X52892640Y-46250001D01*
X53005880Y-46363241D01*
X53094852Y-46496397D01*
X53156140Y-46644357D01*
X53187382Y-46801424D01*
X53187382Y-46961574D01*
X53156140Y-47118641D01*
X53094852Y-47266601D01*
X53005880Y-47399757D01*
X52892640Y-47512997D01*
X52759484Y-47601969D01*
X52611524Y-47663257D01*
X52454457Y-47694499D01*
X52294307Y-47694499D01*
X52137240Y-47663257D01*
X51989280Y-47601969D01*
X51856124Y-47512997D01*
X51742884Y-47399757D01*
X51653912Y-47266601D01*
X51592624Y-47118641D01*
X51561382Y-46961574D01*
X51561382Y-46801424D01*
X51592624Y-46644357D01*
X51653912Y-46496397D01*
X51742884Y-46363241D01*
X51856124Y-46250001D01*
X51989280Y-46161029D01*
X52137240Y-46099741D01*
X52294307Y-46068499D01*
X52454457Y-46068499D01*
X52611524Y-46099741D01*
X52611524Y-46099741D01*
G37*
G36*
X35341524Y-46099741D02*
X35489484Y-46161029D01*
X35622640Y-46250001D01*
X35735880Y-46363241D01*
X35824852Y-46496397D01*
X35886140Y-46644357D01*
X35917382Y-46801424D01*
X35917382Y-46961574D01*
X35886140Y-47118641D01*
X35824852Y-47266601D01*
X35735880Y-47399757D01*
X35622640Y-47512997D01*
X35489484Y-47601969D01*
X35341524Y-47663257D01*
X35184457Y-47694499D01*
X35024307Y-47694499D01*
X34867240Y-47663257D01*
X34719280Y-47601969D01*
X34586124Y-47512997D01*
X34472884Y-47399757D01*
X34383912Y-47266601D01*
X34322624Y-47118641D01*
X34291382Y-46961574D01*
X34291382Y-46801424D01*
X34322624Y-46644357D01*
X34383912Y-46496397D01*
X34472884Y-46363241D01*
X34586124Y-46250001D01*
X34719280Y-46161029D01*
X34867240Y-46099741D01*
X35024307Y-46068499D01*
X35184457Y-46068499D01*
X35341524Y-46099741D01*
X35341524Y-46099741D01*
G37*
G36*
X39772740Y-45628000D02*
X38870740Y-45628000D01*
X38870740Y-43526000D01*
X39772740Y-43526000D01*
X39772740Y-45628000D01*
X39772740Y-45628000D01*
G37*
G36*
X35962740Y-45628000D02*
X35060740Y-45628000D01*
X35060740Y-43526000D01*
X35962740Y-43526000D01*
X35962740Y-45628000D01*
X35962740Y-45628000D01*
G37*
G36*
X38502740Y-45628000D02*
X37600740Y-45628000D01*
X37600740Y-43526000D01*
X38502740Y-43526000D01*
X38502740Y-45628000D01*
X38502740Y-45628000D01*
G37*
G36*
X49932740Y-45628000D02*
X49030740Y-45628000D01*
X49030740Y-43526000D01*
X49932740Y-43526000D01*
X49932740Y-45628000D01*
X49932740Y-45628000D01*
G37*
G36*
X48662740Y-45628000D02*
X47760740Y-45628000D01*
X47760740Y-43526000D01*
X48662740Y-43526000D01*
X48662740Y-45628000D01*
X48662740Y-45628000D01*
G37*
G36*
X47392740Y-45628000D02*
X46490740Y-45628000D01*
X46490740Y-43526000D01*
X47392740Y-43526000D01*
X47392740Y-45628000D01*
X47392740Y-45628000D01*
G37*
G36*
X42312740Y-45628000D02*
X41410740Y-45628000D01*
X41410740Y-43526000D01*
X42312740Y-43526000D01*
X42312740Y-45628000D01*
X42312740Y-45628000D01*
G37*
G36*
X53602140Y-45605140D02*
X51000140Y-45605140D01*
X51000140Y-43503140D01*
X53602140Y-43503140D01*
X53602140Y-45605140D01*
X53602140Y-45605140D01*
G37*
M02*
