M48
;DRILL file {KiCad (5.0.2)-1} date 2019-07-28 23:06:23
;FORMAT={-:-/ absolute / inch / decimal}
FMAT,2
INCH,TZ
T1C0.0157
T2C0.0236
T3C0.0394
%
G90
G05
T1
X1.3747Y-2.4203
X1.3756Y-2.3455
X1.3756Y-2.2036
X1.415Y-1.9182
X1.4294Y-2.6514
X1.4703Y-2.7079
X1.5242Y-2.1636
X1.5313Y-1.9519
X1.5544Y-2.2244
X1.5764Y-2.6669
X1.6122Y-2.5967
X1.6174Y-2.0776
X1.7397Y-2.7075
X1.8989Y-1.8183
X2.0219Y-1.9453
X2.0222Y-2.258
X2.0835Y-2.4792
X2.1457Y-1.8767
X2.1636Y-2.2698
T2
X1.659Y-2.2672
X1.659Y-2.4086
X1.8005Y-2.2672
T3
X1.7146Y-2.0958G85X1.7343Y-2.0958
G05
X1.7061Y-2.8863G85X1.7454Y-2.8863
G05
T0
M30
