G04 #@! TF.GenerationSoftware,KiCad,Pcbnew,(5.0.2)-1*
G04 #@! TF.CreationDate,2019-07-28T23:06:21+08:00*
G04 #@! TF.ProjectId,PIR,5049522e-6b69-4636-9164-5f7063625858,rev?*
G04 #@! TF.SameCoordinates,Original*
G04 #@! TF.FileFunction,Copper,L1,Top*
G04 #@! TF.FilePolarity,Positive*
%FSLAX46Y46*%
G04 Gerber Fmt 4.6, Leading zero omitted, Abs format (unit mm)*
G04 Created by KiCad (PCBNEW (5.0.2)-1) date 2019-07-28 23:06:21*
%MOMM*%
%LPD*%
G01*
G04 APERTURE LIST*
G04 #@! TA.AperFunction,SMDPad,CuDef*
%ADD10R,0.800000X2.000000*%
G04 #@! TD*
G04 #@! TA.AperFunction,SMDPad,CuDef*
%ADD11R,2.500000X2.000000*%
G04 #@! TD*
G04 #@! TA.AperFunction,SMDPad,CuDef*
%ADD12R,0.930000X0.980000*%
G04 #@! TD*
G04 #@! TA.AperFunction,SMDPad,CuDef*
%ADD13R,0.600000X1.100000*%
G04 #@! TD*
G04 #@! TA.AperFunction,SMDPad,CuDef*
%ADD14O,1.300000X0.300000*%
G04 #@! TD*
G04 #@! TA.AperFunction,Conductor*
%ADD15C,0.100000*%
G04 #@! TD*
G04 #@! TA.AperFunction,SMDPad,CuDef*
%ADD16C,0.400000*%
G04 #@! TD*
G04 #@! TA.AperFunction,SMDPad,CuDef*
%ADD17R,0.800000X2.700000*%
G04 #@! TD*
G04 #@! TA.AperFunction,ComponentPad*
%ADD18O,3.000000X2.000000*%
G04 #@! TD*
G04 #@! TA.AperFunction,WasherPad*
%ADD19C,1.524000*%
G04 #@! TD*
G04 #@! TA.AperFunction,ComponentPad*
%ADD20C,1.200000*%
G04 #@! TD*
G04 #@! TA.AperFunction,ViaPad*
%ADD21C,0.800000*%
G04 #@! TD*
G04 #@! TA.AperFunction,Conductor*
%ADD22C,0.250000*%
G04 #@! TD*
G04 #@! TA.AperFunction,Conductor*
%ADD23C,0.800000*%
G04 #@! TD*
G04 #@! TA.AperFunction,NonConductor*
%ADD24C,0.400000*%
G04 #@! TD*
G04 APERTURE END LIST*
D10*
G04 #@! TO.P,U1,3*
G04 #@! TO.N,D7*
X46941740Y-44577000D03*
D11*
G04 #@! TO.P,U1,2*
G04 #@! TO.N,GND*
X52301140Y-44554140D03*
D10*
G04 #@! TO.P,U1,1*
G04 #@! TO.N,+3V3*
X49481740Y-44577000D03*
G04 #@! TO.P,U1,2*
G04 #@! TO.N,GND*
X48211740Y-44577000D03*
G04 #@! TO.P,U1,7*
G04 #@! TO.N,D3*
X41861740Y-44577000D03*
G04 #@! TO.P,U1,9*
G04 #@! TO.N,SCL*
X39321740Y-44577000D03*
G04 #@! TO.P,U1,10*
G04 #@! TO.N,SDA*
X38051740Y-44577000D03*
G04 #@! TO.P,U1,12*
G04 #@! TO.N,A2*
X35511740Y-44577000D03*
G04 #@! TD*
D12*
G04 #@! TO.P,C7,1*
G04 #@! TO.N,GND*
X35942780Y-50065940D03*
G04 #@! TO.P,C7,2*
G04 #@! TO.N,A2*
X37482780Y-50065940D03*
G04 #@! TD*
G04 #@! TO.P,R7,2*
G04 #@! TO.N,A2*
X37467540Y-51912520D03*
G04 #@! TO.P,R7,1*
G04 #@! TO.N,GND*
X35927540Y-51912520D03*
G04 #@! TD*
G04 #@! TO.P,R6,1*
G04 #@! TO.N,A2*
X35927540Y-53799740D03*
G04 #@! TO.P,R6,2*
G04 #@! TO.N,VDD*
X37467540Y-53799740D03*
G04 #@! TD*
D13*
G04 #@! TO.P,U4,1*
G04 #@! TO.N,Net-(L1-Pad2)*
X52252920Y-56295640D03*
G04 #@! TO.P,U4,2*
G04 #@! TO.N,GND*
X51302920Y-56295640D03*
G04 #@! TO.P,U4,3*
G04 #@! TO.N,VDD*
X50352920Y-56295640D03*
G04 #@! TO.P,U4,4*
G04 #@! TO.N,Net-(R4-Pad1)*
X50352920Y-59095640D03*
G04 #@! TO.P,U4,5*
G04 #@! TO.N,+3V3*
X51302920Y-59095640D03*
G04 #@! TO.P,U4,6*
G04 #@! TO.N,VDD*
X52252920Y-59095640D03*
G04 #@! TD*
D14*
G04 #@! TO.P,U2,6*
G04 #@! TO.N,SCL*
X45519340Y-64952880D03*
G04 #@! TO.P,U2,5*
G04 #@! TO.N,Net-(C4-Pad2)*
X45519340Y-65452880D03*
G04 #@! TO.P,U2,4*
G04 #@! TO.N,SDA*
X45519340Y-65952880D03*
G04 #@! TO.P,U2,1*
G04 #@! TO.N,+3V3*
X42519340Y-64952880D03*
G04 #@! TO.P,U2,2*
G04 #@! TO.N,GND*
X42519340Y-65452880D03*
G04 #@! TO.P,U2,3*
X42519340Y-65952880D03*
G04 #@! TD*
D15*
G04 #@! TO.N,SDA*
G04 #@! TO.C,U3*
G36*
X37650082Y-71104122D02*
X37659789Y-71105561D01*
X37669308Y-71107946D01*
X37678548Y-71111252D01*
X37687420Y-71115448D01*
X37695837Y-71120493D01*
X37703719Y-71126339D01*
X37710991Y-71132929D01*
X37717581Y-71140201D01*
X37723427Y-71148083D01*
X37728472Y-71156500D01*
X37732668Y-71165372D01*
X37735974Y-71174612D01*
X37738359Y-71184131D01*
X37739798Y-71193838D01*
X37740280Y-71203640D01*
X37740280Y-71403640D01*
X37739798Y-71413442D01*
X37738359Y-71423149D01*
X37735974Y-71432668D01*
X37732668Y-71441908D01*
X37728472Y-71450780D01*
X37723427Y-71459197D01*
X37717581Y-71467079D01*
X37710991Y-71474351D01*
X37703719Y-71480941D01*
X37695837Y-71486787D01*
X37687420Y-71491832D01*
X37678548Y-71496028D01*
X37669308Y-71499334D01*
X37659789Y-71501719D01*
X37650082Y-71503158D01*
X37640280Y-71503640D01*
X36840280Y-71503640D01*
X36830478Y-71503158D01*
X36820771Y-71501719D01*
X36811252Y-71499334D01*
X36802012Y-71496028D01*
X36793140Y-71491832D01*
X36784723Y-71486787D01*
X36776841Y-71480941D01*
X36769569Y-71474351D01*
X36762979Y-71467079D01*
X36757133Y-71459197D01*
X36752088Y-71450780D01*
X36747892Y-71441908D01*
X36744586Y-71432668D01*
X36742201Y-71423149D01*
X36740762Y-71413442D01*
X36740280Y-71403640D01*
X36740280Y-71203640D01*
X36740762Y-71193838D01*
X36742201Y-71184131D01*
X36744586Y-71174612D01*
X36747892Y-71165372D01*
X36752088Y-71156500D01*
X36757133Y-71148083D01*
X36762979Y-71140201D01*
X36769569Y-71132929D01*
X36776841Y-71126339D01*
X36784723Y-71120493D01*
X36793140Y-71115448D01*
X36802012Y-71111252D01*
X36811252Y-71107946D01*
X36820771Y-71105561D01*
X36830478Y-71104122D01*
X36840280Y-71103640D01*
X37640280Y-71103640D01*
X37650082Y-71104122D01*
X37650082Y-71104122D01*
G37*
D16*
G04 #@! TD*
G04 #@! TO.P,U3,1*
G04 #@! TO.N,SDA*
X37240280Y-71303640D03*
D15*
G04 #@! TO.N,GND*
G04 #@! TO.C,U3*
G36*
X37650082Y-72104122D02*
X37659789Y-72105561D01*
X37669308Y-72107946D01*
X37678548Y-72111252D01*
X37687420Y-72115448D01*
X37695837Y-72120493D01*
X37703719Y-72126339D01*
X37710991Y-72132929D01*
X37717581Y-72140201D01*
X37723427Y-72148083D01*
X37728472Y-72156500D01*
X37732668Y-72165372D01*
X37735974Y-72174612D01*
X37738359Y-72184131D01*
X37739798Y-72193838D01*
X37740280Y-72203640D01*
X37740280Y-72403640D01*
X37739798Y-72413442D01*
X37738359Y-72423149D01*
X37735974Y-72432668D01*
X37732668Y-72441908D01*
X37728472Y-72450780D01*
X37723427Y-72459197D01*
X37717581Y-72467079D01*
X37710991Y-72474351D01*
X37703719Y-72480941D01*
X37695837Y-72486787D01*
X37687420Y-72491832D01*
X37678548Y-72496028D01*
X37669308Y-72499334D01*
X37659789Y-72501719D01*
X37650082Y-72503158D01*
X37640280Y-72503640D01*
X36840280Y-72503640D01*
X36830478Y-72503158D01*
X36820771Y-72501719D01*
X36811252Y-72499334D01*
X36802012Y-72496028D01*
X36793140Y-72491832D01*
X36784723Y-72486787D01*
X36776841Y-72480941D01*
X36769569Y-72474351D01*
X36762979Y-72467079D01*
X36757133Y-72459197D01*
X36752088Y-72450780D01*
X36747892Y-72441908D01*
X36744586Y-72432668D01*
X36742201Y-72423149D01*
X36740762Y-72413442D01*
X36740280Y-72403640D01*
X36740280Y-72203640D01*
X36740762Y-72193838D01*
X36742201Y-72184131D01*
X36744586Y-72174612D01*
X36747892Y-72165372D01*
X36752088Y-72156500D01*
X36757133Y-72148083D01*
X36762979Y-72140201D01*
X36769569Y-72132929D01*
X36776841Y-72126339D01*
X36784723Y-72120493D01*
X36793140Y-72115448D01*
X36802012Y-72111252D01*
X36811252Y-72107946D01*
X36820771Y-72105561D01*
X36830478Y-72104122D01*
X36840280Y-72103640D01*
X37640280Y-72103640D01*
X37650082Y-72104122D01*
X37650082Y-72104122D01*
G37*
D16*
G04 #@! TD*
G04 #@! TO.P,U3,2*
G04 #@! TO.N,GND*
X37240280Y-72303640D03*
D15*
G04 #@! TO.N,Net-(U3-Pad3)*
G04 #@! TO.C,U3*
G36*
X37650082Y-73104122D02*
X37659789Y-73105561D01*
X37669308Y-73107946D01*
X37678548Y-73111252D01*
X37687420Y-73115448D01*
X37695837Y-73120493D01*
X37703719Y-73126339D01*
X37710991Y-73132929D01*
X37717581Y-73140201D01*
X37723427Y-73148083D01*
X37728472Y-73156500D01*
X37732668Y-73165372D01*
X37735974Y-73174612D01*
X37738359Y-73184131D01*
X37739798Y-73193838D01*
X37740280Y-73203640D01*
X37740280Y-73403640D01*
X37739798Y-73413442D01*
X37738359Y-73423149D01*
X37735974Y-73432668D01*
X37732668Y-73441908D01*
X37728472Y-73450780D01*
X37723427Y-73459197D01*
X37717581Y-73467079D01*
X37710991Y-73474351D01*
X37703719Y-73480941D01*
X37695837Y-73486787D01*
X37687420Y-73491832D01*
X37678548Y-73496028D01*
X37669308Y-73499334D01*
X37659789Y-73501719D01*
X37650082Y-73503158D01*
X37640280Y-73503640D01*
X36840280Y-73503640D01*
X36830478Y-73503158D01*
X36820771Y-73501719D01*
X36811252Y-73499334D01*
X36802012Y-73496028D01*
X36793140Y-73491832D01*
X36784723Y-73486787D01*
X36776841Y-73480941D01*
X36769569Y-73474351D01*
X36762979Y-73467079D01*
X36757133Y-73459197D01*
X36752088Y-73450780D01*
X36747892Y-73441908D01*
X36744586Y-73432668D01*
X36742201Y-73423149D01*
X36740762Y-73413442D01*
X36740280Y-73403640D01*
X36740280Y-73203640D01*
X36740762Y-73193838D01*
X36742201Y-73184131D01*
X36744586Y-73174612D01*
X36747892Y-73165372D01*
X36752088Y-73156500D01*
X36757133Y-73148083D01*
X36762979Y-73140201D01*
X36769569Y-73132929D01*
X36776841Y-73126339D01*
X36784723Y-73120493D01*
X36793140Y-73115448D01*
X36802012Y-73111252D01*
X36811252Y-73107946D01*
X36820771Y-73105561D01*
X36830478Y-73104122D01*
X36840280Y-73103640D01*
X37640280Y-73103640D01*
X37650082Y-73104122D01*
X37650082Y-73104122D01*
G37*
D16*
G04 #@! TD*
G04 #@! TO.P,U3,3*
G04 #@! TO.N,Net-(U3-Pad3)*
X37240280Y-73303640D03*
D15*
G04 #@! TO.N,Net-(U3-Pad4)*
G04 #@! TO.C,U3*
G36*
X40750082Y-73104122D02*
X40759789Y-73105561D01*
X40769308Y-73107946D01*
X40778548Y-73111252D01*
X40787420Y-73115448D01*
X40795837Y-73120493D01*
X40803719Y-73126339D01*
X40810991Y-73132929D01*
X40817581Y-73140201D01*
X40823427Y-73148083D01*
X40828472Y-73156500D01*
X40832668Y-73165372D01*
X40835974Y-73174612D01*
X40838359Y-73184131D01*
X40839798Y-73193838D01*
X40840280Y-73203640D01*
X40840280Y-73403640D01*
X40839798Y-73413442D01*
X40838359Y-73423149D01*
X40835974Y-73432668D01*
X40832668Y-73441908D01*
X40828472Y-73450780D01*
X40823427Y-73459197D01*
X40817581Y-73467079D01*
X40810991Y-73474351D01*
X40803719Y-73480941D01*
X40795837Y-73486787D01*
X40787420Y-73491832D01*
X40778548Y-73496028D01*
X40769308Y-73499334D01*
X40759789Y-73501719D01*
X40750082Y-73503158D01*
X40740280Y-73503640D01*
X39940280Y-73503640D01*
X39930478Y-73503158D01*
X39920771Y-73501719D01*
X39911252Y-73499334D01*
X39902012Y-73496028D01*
X39893140Y-73491832D01*
X39884723Y-73486787D01*
X39876841Y-73480941D01*
X39869569Y-73474351D01*
X39862979Y-73467079D01*
X39857133Y-73459197D01*
X39852088Y-73450780D01*
X39847892Y-73441908D01*
X39844586Y-73432668D01*
X39842201Y-73423149D01*
X39840762Y-73413442D01*
X39840280Y-73403640D01*
X39840280Y-73203640D01*
X39840762Y-73193838D01*
X39842201Y-73184131D01*
X39844586Y-73174612D01*
X39847892Y-73165372D01*
X39852088Y-73156500D01*
X39857133Y-73148083D01*
X39862979Y-73140201D01*
X39869569Y-73132929D01*
X39876841Y-73126339D01*
X39884723Y-73120493D01*
X39893140Y-73115448D01*
X39902012Y-73111252D01*
X39911252Y-73107946D01*
X39920771Y-73105561D01*
X39930478Y-73104122D01*
X39940280Y-73103640D01*
X40740280Y-73103640D01*
X40750082Y-73104122D01*
X40750082Y-73104122D01*
G37*
D16*
G04 #@! TD*
G04 #@! TO.P,U3,4*
G04 #@! TO.N,Net-(U3-Pad4)*
X40340280Y-73303640D03*
D15*
G04 #@! TO.N,+3V3*
G04 #@! TO.C,U3*
G36*
X40750082Y-72104122D02*
X40759789Y-72105561D01*
X40769308Y-72107946D01*
X40778548Y-72111252D01*
X40787420Y-72115448D01*
X40795837Y-72120493D01*
X40803719Y-72126339D01*
X40810991Y-72132929D01*
X40817581Y-72140201D01*
X40823427Y-72148083D01*
X40828472Y-72156500D01*
X40832668Y-72165372D01*
X40835974Y-72174612D01*
X40838359Y-72184131D01*
X40839798Y-72193838D01*
X40840280Y-72203640D01*
X40840280Y-72403640D01*
X40839798Y-72413442D01*
X40838359Y-72423149D01*
X40835974Y-72432668D01*
X40832668Y-72441908D01*
X40828472Y-72450780D01*
X40823427Y-72459197D01*
X40817581Y-72467079D01*
X40810991Y-72474351D01*
X40803719Y-72480941D01*
X40795837Y-72486787D01*
X40787420Y-72491832D01*
X40778548Y-72496028D01*
X40769308Y-72499334D01*
X40759789Y-72501719D01*
X40750082Y-72503158D01*
X40740280Y-72503640D01*
X39940280Y-72503640D01*
X39930478Y-72503158D01*
X39920771Y-72501719D01*
X39911252Y-72499334D01*
X39902012Y-72496028D01*
X39893140Y-72491832D01*
X39884723Y-72486787D01*
X39876841Y-72480941D01*
X39869569Y-72474351D01*
X39862979Y-72467079D01*
X39857133Y-72459197D01*
X39852088Y-72450780D01*
X39847892Y-72441908D01*
X39844586Y-72432668D01*
X39842201Y-72423149D01*
X39840762Y-72413442D01*
X39840280Y-72403640D01*
X39840280Y-72203640D01*
X39840762Y-72193838D01*
X39842201Y-72184131D01*
X39844586Y-72174612D01*
X39847892Y-72165372D01*
X39852088Y-72156500D01*
X39857133Y-72148083D01*
X39862979Y-72140201D01*
X39869569Y-72132929D01*
X39876841Y-72126339D01*
X39884723Y-72120493D01*
X39893140Y-72115448D01*
X39902012Y-72111252D01*
X39911252Y-72107946D01*
X39920771Y-72105561D01*
X39930478Y-72104122D01*
X39940280Y-72103640D01*
X40740280Y-72103640D01*
X40750082Y-72104122D01*
X40750082Y-72104122D01*
G37*
D16*
G04 #@! TD*
G04 #@! TO.P,U3,5*
G04 #@! TO.N,+3V3*
X40340280Y-72303640D03*
D15*
G04 #@! TO.N,SCL*
G04 #@! TO.C,U3*
G36*
X40750082Y-71104122D02*
X40759789Y-71105561D01*
X40769308Y-71107946D01*
X40778548Y-71111252D01*
X40787420Y-71115448D01*
X40795837Y-71120493D01*
X40803719Y-71126339D01*
X40810991Y-71132929D01*
X40817581Y-71140201D01*
X40823427Y-71148083D01*
X40828472Y-71156500D01*
X40832668Y-71165372D01*
X40835974Y-71174612D01*
X40838359Y-71184131D01*
X40839798Y-71193838D01*
X40840280Y-71203640D01*
X40840280Y-71403640D01*
X40839798Y-71413442D01*
X40838359Y-71423149D01*
X40835974Y-71432668D01*
X40832668Y-71441908D01*
X40828472Y-71450780D01*
X40823427Y-71459197D01*
X40817581Y-71467079D01*
X40810991Y-71474351D01*
X40803719Y-71480941D01*
X40795837Y-71486787D01*
X40787420Y-71491832D01*
X40778548Y-71496028D01*
X40769308Y-71499334D01*
X40759789Y-71501719D01*
X40750082Y-71503158D01*
X40740280Y-71503640D01*
X39940280Y-71503640D01*
X39930478Y-71503158D01*
X39920771Y-71501719D01*
X39911252Y-71499334D01*
X39902012Y-71496028D01*
X39893140Y-71491832D01*
X39884723Y-71486787D01*
X39876841Y-71480941D01*
X39869569Y-71474351D01*
X39862979Y-71467079D01*
X39857133Y-71459197D01*
X39852088Y-71450780D01*
X39847892Y-71441908D01*
X39844586Y-71432668D01*
X39842201Y-71423149D01*
X39840762Y-71413442D01*
X39840280Y-71403640D01*
X39840280Y-71203640D01*
X39840762Y-71193838D01*
X39842201Y-71184131D01*
X39844586Y-71174612D01*
X39847892Y-71165372D01*
X39852088Y-71156500D01*
X39857133Y-71148083D01*
X39862979Y-71140201D01*
X39869569Y-71132929D01*
X39876841Y-71126339D01*
X39884723Y-71120493D01*
X39893140Y-71115448D01*
X39902012Y-71111252D01*
X39911252Y-71107946D01*
X39920771Y-71105561D01*
X39930478Y-71104122D01*
X39940280Y-71103640D01*
X40740280Y-71103640D01*
X40750082Y-71104122D01*
X40750082Y-71104122D01*
G37*
D16*
G04 #@! TD*
G04 #@! TO.P,U3,6*
G04 #@! TO.N,SCL*
X40340280Y-71303640D03*
D17*
G04 #@! TO.P,L1,2*
G04 #@! TO.N,Net-(L1-Pad2)*
X52473860Y-51313080D03*
G04 #@! TO.P,L1,1*
G04 #@! TO.N,VDD*
X50273860Y-51313080D03*
G04 #@! TD*
D18*
G04 #@! TO.P,BT1,1*
G04 #@! TO.N,VDD*
X43834362Y-73312199D03*
G04 #@! TO.P,BT1,2*
G04 #@! TO.N,GND*
X43801342Y-53233679D03*
G04 #@! TD*
D12*
G04 #@! TO.P,C5,1*
G04 #@! TO.N,VDD*
X50532920Y-54020720D03*
G04 #@! TO.P,C5,2*
G04 #@! TO.N,GND*
X52072920Y-54020720D03*
G04 #@! TD*
G04 #@! TO.P,R4,1*
G04 #@! TO.N,Net-(R4-Pad1)*
X50466880Y-61140340D03*
G04 #@! TO.P,R4,2*
G04 #@! TO.N,+3V3*
X52006880Y-61140340D03*
G04 #@! TD*
G04 #@! TO.P,R5,2*
G04 #@! TO.N,GND*
X52014500Y-62999620D03*
G04 #@! TO.P,R5,1*
G04 #@! TO.N,Net-(R4-Pad1)*
X50474500Y-62999620D03*
G04 #@! TD*
G04 #@! TO.P,C1,2*
G04 #@! TO.N,+3V3*
X37473000Y-65021460D03*
G04 #@! TO.P,C1,1*
G04 #@! TO.N,GND*
X35933000Y-65021460D03*
G04 #@! TD*
G04 #@! TO.P,D1,K*
G04 #@! TO.N,GND*
X42003980Y-49946560D03*
G04 #@! TO.P,D1,A*
G04 #@! TO.N,Net-(D1-PadA)*
X43543980Y-49946560D03*
G04 #@! TD*
D19*
G04 #@! TO.P,J1,*
G04 #@! TO.N,*
X52374382Y-46881499D03*
X52374382Y-68981499D03*
X35104382Y-46881499D03*
X35104382Y-68981499D03*
G04 #@! TD*
D12*
G04 #@! TO.P,C6,1*
G04 #@! TO.N,+3V3*
X50467260Y-64828420D03*
G04 #@! TO.P,C6,2*
G04 #@! TO.N,GND*
X52007260Y-64828420D03*
G04 #@! TD*
D20*
G04 #@! TO.P,AM312,2*
G04 #@! TO.N,VDDA*
X42139640Y-57586517D03*
G04 #@! TO.P,AM312,3*
G04 #@! TO.N,GND*
X42139640Y-61178619D03*
G04 #@! TO.P,AM312,1*
G04 #@! TO.N,+3V3*
X45731742Y-57586517D03*
G04 #@! TD*
D12*
G04 #@! TO.P,C4,2*
G04 #@! TO.N,Net-(C4-Pad2)*
X37442520Y-61379100D03*
G04 #@! TO.P,C4,1*
G04 #@! TO.N,GND*
X35902520Y-61379100D03*
G04 #@! TD*
G04 #@! TO.P,R3,2*
G04 #@! TO.N,Net-(C4-Pad2)*
X37455220Y-63190120D03*
G04 #@! TO.P,R3,1*
G04 #@! TO.N,+3V3*
X35915220Y-63190120D03*
G04 #@! TD*
G04 #@! TO.P,C3,2*
G04 #@! TO.N,+3V3*
X37457760Y-55968900D03*
G04 #@! TO.P,C3,1*
G04 #@! TO.N,GND*
X35917760Y-55968900D03*
G04 #@! TD*
G04 #@! TO.P,C2,2*
G04 #@! TO.N,+3V3*
X37460300Y-57777380D03*
G04 #@! TO.P,C2,1*
G04 #@! TO.N,GND*
X35920300Y-57777380D03*
G04 #@! TD*
G04 #@! TO.P,R2,1*
G04 #@! TO.N,D3*
X35910140Y-59565540D03*
G04 #@! TO.P,R2,2*
G04 #@! TO.N,VDDA*
X37450140Y-59565540D03*
G04 #@! TD*
G04 #@! TO.P,R1,2*
G04 #@! TO.N,D7*
X47049180Y-49913540D03*
G04 #@! TO.P,R1,1*
G04 #@! TO.N,Net-(D1-PadA)*
X45509180Y-49913540D03*
G04 #@! TD*
D21*
G04 #@! TO.N,VDD*
X54955440Y-57652920D03*
X51356260Y-49410620D03*
X38895020Y-49578254D03*
G04 #@! TO.N,D3*
X34940244Y-59575700D03*
X41083070Y-52771040D03*
G04 #@! TO.N,GND*
X54500780Y-47668180D03*
X34917380Y-61475620D03*
X36306760Y-67345560D03*
X40949880Y-65955700D03*
X52920900Y-62971680D03*
X51363880Y-57353200D03*
X48232060Y-46184820D03*
X35941000Y-48722280D03*
X34940258Y-55971440D03*
G04 #@! TO.N,SCL*
X40040560Y-67739260D03*
X39481788Y-56499760D03*
G04 #@! TO.N,SDA*
X44188380Y-68770500D03*
X38714680Y-54955440D03*
X37345620Y-68780660D03*
G04 #@! TD*
D22*
G04 #@! TO.N,Net-(D1-PadA)*
X45476160Y-49946560D02*
X45509180Y-49913540D01*
X43543980Y-49946560D02*
X45476160Y-49946560D01*
D23*
G04 #@! TO.N,VDD*
X53705562Y-59179739D02*
X54036362Y-59179739D01*
D22*
X50577020Y-51991260D02*
X50413840Y-51828080D01*
X50413840Y-54299820D02*
X50700560Y-54013100D01*
X50413840Y-51914440D02*
X50574480Y-52075080D01*
X52240180Y-59006700D02*
X52186880Y-58953400D01*
X53794841Y-59129120D02*
X52263080Y-59129120D01*
X53845460Y-59179739D02*
X53794841Y-59129120D01*
X53845460Y-59179739D02*
X53705562Y-59179739D01*
X54950538Y-57648018D02*
X54955440Y-57652920D01*
X50294500Y-56306260D02*
X50294500Y-51333720D01*
X50294500Y-51333720D02*
X49946560Y-50985780D01*
X54112160Y-57652920D02*
X54955440Y-57652920D01*
X53794841Y-59129120D02*
X53794841Y-57970239D01*
X53794841Y-57970239D02*
X54112160Y-57652920D01*
X50273860Y-49672600D02*
X50273860Y-51313080D01*
X50535840Y-49410620D02*
X50273860Y-49672600D01*
X54643020Y-49410620D02*
X51356260Y-49410620D01*
X54955440Y-57652920D02*
X54955440Y-49723040D01*
X54955440Y-49723040D02*
X54643020Y-49410620D01*
X51356260Y-49410620D02*
X50535840Y-49410620D01*
X38895020Y-50143939D02*
X38895020Y-49578254D01*
X38895020Y-53500020D02*
X38895020Y-50143939D01*
X37467540Y-53799740D02*
X38595300Y-53799740D01*
X38595300Y-53799740D02*
X38895020Y-53500020D01*
G04 #@! TO.N,D3*
X35910140Y-59565540D02*
X34950404Y-59565540D01*
X34950404Y-59565540D02*
X34940244Y-59575700D01*
X41866820Y-44764960D02*
X41864278Y-44767502D01*
X41109900Y-52744210D02*
X41083070Y-52771040D01*
X41109900Y-47081440D02*
X41109900Y-52744210D01*
X41861740Y-44577000D02*
X41861740Y-46329600D01*
X41861740Y-46329600D02*
X41109900Y-47081440D01*
G04 #@! TO.N,GND*
X53806220Y-44742100D02*
X54500780Y-45436660D01*
X52306220Y-44742100D02*
X53806220Y-44742100D01*
X54500780Y-45436660D02*
X54500780Y-47668180D01*
X54500780Y-47668180D02*
X54500780Y-47668180D01*
X34942780Y-55973980D02*
X34942780Y-55973980D01*
X35920300Y-55971440D02*
X35917760Y-55968900D01*
X35920300Y-57777380D02*
X35920300Y-55971440D01*
X36306760Y-65395220D02*
X35933000Y-65021460D01*
X36306760Y-67345560D02*
X36306760Y-65395220D01*
X40886480Y-65892300D02*
X40949880Y-65955700D01*
X40949880Y-65955700D02*
X42453300Y-65955700D01*
X40949880Y-65438020D02*
X40949880Y-65955700D01*
X42453300Y-65455700D02*
X42435620Y-65438020D01*
X42435620Y-65438020D02*
X40949880Y-65438020D01*
X52031900Y-65097660D02*
X51805840Y-64871600D01*
X51805840Y-64871600D02*
X51805840Y-62961520D01*
X51737640Y-63019940D02*
X51785900Y-62971680D01*
X52355215Y-62971680D02*
X52920900Y-62971680D01*
X51785900Y-62971680D02*
X52355215Y-62971680D01*
X52240560Y-54824698D02*
X52240560Y-54013100D01*
X51363880Y-57353200D02*
X51363880Y-55701378D01*
X51363880Y-55701378D02*
X52240560Y-54824698D01*
X36306760Y-72067420D02*
X36306760Y-67345560D01*
X37266880Y-72296780D02*
X36536120Y-72296780D01*
X36536120Y-72296780D02*
X36306760Y-72067420D01*
X35806000Y-61475620D02*
X34917380Y-61475620D01*
X35902520Y-61379100D02*
X35806000Y-61475620D01*
X48247300Y-45295440D02*
X48232060Y-45310680D01*
X48232060Y-45619135D02*
X48232060Y-46184820D01*
X48232060Y-45310680D02*
X48232060Y-45619135D01*
X42003980Y-52113180D02*
X42003980Y-49946560D01*
X43801342Y-53233679D02*
X43124479Y-53233679D01*
X43124479Y-53233679D02*
X42003980Y-52113180D01*
X35927540Y-50081180D02*
X35942780Y-50065940D01*
X35927540Y-51912520D02*
X35927540Y-50081180D01*
X35942780Y-48724060D02*
X35941000Y-48722280D01*
X35942780Y-50065940D02*
X35942780Y-48724060D01*
X34940240Y-55971440D02*
X34940258Y-55971440D01*
X35917760Y-55968900D02*
X34942798Y-55968900D01*
X34942798Y-55968900D02*
X34940258Y-55971440D01*
G04 #@! TO.N,SCL*
X40035480Y-67744340D02*
X40040560Y-67739260D01*
X40166880Y-71296780D02*
X40035480Y-71165380D01*
X40035480Y-71165380D02*
X40035480Y-67744340D01*
X44426560Y-64948560D02*
X45326560Y-64948560D01*
X44169840Y-64948560D02*
X44426560Y-64948560D01*
X43865800Y-65252600D02*
X44169840Y-64948560D01*
X43865800Y-67424300D02*
X43865800Y-65252600D01*
X40040560Y-67739260D02*
X43550840Y-67739260D01*
X43550840Y-67739260D02*
X43865800Y-67424300D01*
X39481788Y-56433692D02*
X39481788Y-56499760D01*
X40358060Y-55557420D02*
X39481788Y-56433692D01*
X40358060Y-47631168D02*
X40358060Y-55557420D01*
X39326820Y-44764960D02*
X39326820Y-46599928D01*
X39326820Y-46599928D02*
X40358060Y-47631168D01*
G04 #@! TO.N,SDA*
X44942760Y-68770500D02*
X44188380Y-68770500D01*
X45326560Y-65948560D02*
X45326560Y-68386700D01*
X45326560Y-68386700D02*
X44942760Y-68770500D01*
X37345620Y-71218040D02*
X37345620Y-68780660D01*
X37266880Y-71296780D02*
X37345620Y-71218040D01*
X38745160Y-54955440D02*
X38714680Y-54955440D01*
X39806880Y-53893720D02*
X38745160Y-54955440D01*
X39806880Y-48143160D02*
X39806880Y-53893720D01*
X38056820Y-44764960D02*
X38056820Y-46393100D01*
X38056820Y-46393100D02*
X39806880Y-48143160D01*
G04 #@! TO.N,A2*
X37482780Y-50627280D02*
X37482780Y-50065940D01*
X35511740Y-45077000D02*
X37482780Y-47048040D01*
X35511740Y-44577000D02*
X35511740Y-45077000D01*
X37482780Y-47048040D02*
X37482780Y-50627280D01*
X37482780Y-50805940D02*
X37482780Y-50627280D01*
X37482780Y-52257960D02*
X37482780Y-50805940D01*
X35927540Y-53799740D02*
X35941000Y-53799740D01*
X35941000Y-53799740D02*
X37482780Y-52257960D01*
G04 #@! TO.N,VDDA*
X42139640Y-59221600D02*
X42139640Y-57586517D01*
X37450140Y-59565540D02*
X41795700Y-59565540D01*
X41795700Y-59565540D02*
X42139640Y-59221600D01*
D23*
G04 #@! TO.N,+3V3*
X53697942Y-60205899D02*
X54028742Y-60205899D01*
D22*
X37721160Y-64773300D02*
X37473000Y-65021460D01*
X34127440Y-60672980D02*
X34127440Y-60820300D01*
X37457760Y-57774840D02*
X37460300Y-57777380D01*
X37457760Y-55968900D02*
X37457760Y-57774840D01*
X41553300Y-64955700D02*
X42453300Y-64955700D01*
X37473000Y-65021460D02*
X37538760Y-64955700D01*
X37538760Y-64955700D02*
X41553300Y-64955700D01*
X35915220Y-63326900D02*
X35915220Y-63190120D01*
X37473000Y-65021460D02*
X37473000Y-64884680D01*
X37473000Y-64884680D02*
X35915220Y-63326900D01*
X34414460Y-63190120D02*
X35915220Y-63190120D01*
X34127440Y-60820300D02*
X34127440Y-62903100D01*
X34127440Y-62903100D02*
X34414460Y-63190120D01*
X52117756Y-61410084D02*
X52199540Y-61328300D01*
X53883560Y-61688980D02*
X53883560Y-61518800D01*
X53842920Y-61140340D02*
X52006880Y-61140340D01*
X53883560Y-61099700D02*
X53842920Y-61140340D01*
X53883560Y-61099700D02*
X53883560Y-60368261D01*
X53883560Y-61688980D02*
X53883560Y-61099700D01*
X52006880Y-61140340D02*
X52240180Y-60907040D01*
X34127440Y-60820300D02*
X34127440Y-60477400D01*
X51313080Y-60446540D02*
X51313080Y-59129120D01*
X52006880Y-61140340D02*
X51313080Y-60446540D01*
X50189640Y-64841120D02*
X50098200Y-64932560D01*
X53883560Y-61688980D02*
X53883560Y-66172080D01*
X53883560Y-66172080D02*
X53586380Y-66469260D01*
X53586380Y-66469260D02*
X50645060Y-66469260D01*
X50645060Y-66469260D02*
X50309780Y-66133980D01*
X50309780Y-66133980D02*
X50309780Y-64961260D01*
X50309780Y-64961260D02*
X50189640Y-64841120D01*
X38221920Y-60477400D02*
X34127440Y-60477400D01*
X38521640Y-60777120D02*
X38221920Y-60477400D01*
X38521640Y-61762640D02*
X38521640Y-60777120D01*
X38862620Y-62103620D02*
X38521640Y-61762640D01*
X48359060Y-62100460D02*
X48355900Y-62103620D01*
X48355900Y-62103620D02*
X38862620Y-62103620D01*
X38762940Y-67358260D02*
X37792660Y-67358260D01*
X40166880Y-72296780D02*
X39548560Y-72296780D01*
X39103300Y-71851520D02*
X39103300Y-67698620D01*
X37473000Y-66561080D02*
X37473000Y-65021460D01*
X39548560Y-72296780D02*
X39103300Y-71851520D01*
X39103300Y-67698620D02*
X38762940Y-67358260D01*
X37792660Y-67358260D02*
X37473000Y-67038600D01*
X37473000Y-67038600D02*
X37473000Y-66561080D01*
X37457760Y-55120920D02*
X37457760Y-55968900D01*
X34127440Y-60477400D02*
X34127440Y-55148480D01*
X34127440Y-55148480D02*
X34394140Y-54881780D01*
X34394140Y-54881780D02*
X37218620Y-54881780D01*
X37218620Y-54881780D02*
X37457760Y-55120920D01*
X37465380Y-57782460D02*
X40566340Y-57782460D01*
X45537120Y-56095900D02*
X45731742Y-56290522D01*
X37460300Y-57777380D02*
X37465380Y-57782460D01*
X45731742Y-56290522D02*
X45731742Y-57586517D01*
X40566340Y-57782460D02*
X40777160Y-57571640D01*
X40777160Y-57571640D02*
X40777160Y-56314340D01*
X40777160Y-56314340D02*
X40995600Y-56095900D01*
X40995600Y-56095900D02*
X45537120Y-56095900D01*
X49481740Y-46890940D02*
X49481740Y-44577000D01*
X49022000Y-64828420D02*
X48359060Y-64165480D01*
X48359060Y-64165480D02*
X48359060Y-47416720D01*
X50467260Y-64828420D02*
X49022000Y-64828420D01*
X48359060Y-47416720D02*
X48587660Y-47188120D01*
X48587660Y-47188120D02*
X49184560Y-47188120D01*
X49184560Y-47188120D02*
X49481740Y-46890940D01*
G04 #@! TO.N,Net-(C4-Pad2)*
X37442520Y-63177420D02*
X37455220Y-63190120D01*
X37442520Y-61379100D02*
X37442520Y-63177420D01*
X37622860Y-63357760D02*
X37455220Y-63190120D01*
X46497240Y-63357760D02*
X37622860Y-63357760D01*
X46896020Y-63756540D02*
X46497240Y-63357760D01*
X46896020Y-65067180D02*
X46896020Y-63756540D01*
X46515020Y-65448180D02*
X46896020Y-65067180D01*
X45326560Y-65448560D02*
X46500360Y-65448560D01*
G04 #@! TO.N,D7*
X47142780Y-44778040D02*
X46941740Y-44577000D01*
X47049180Y-49913540D02*
X47142780Y-49819940D01*
X47142780Y-49819940D02*
X47142780Y-44778040D01*
G04 #@! TO.N,Net-(L1-Pad2)*
X53629560Y-52075080D02*
X52354480Y-52075080D01*
X53842920Y-52288440D02*
X53629560Y-52075080D01*
X53842920Y-56273700D02*
X53842920Y-52288440D01*
X52189380Y-56539480D02*
X53577140Y-56539480D01*
X53577140Y-56539480D02*
X53842920Y-56273700D01*
G04 #@! TO.N,Net-(R4-Pad1)*
X50491900Y-63306960D02*
X50340260Y-63155320D01*
X50413840Y-62938960D02*
X50474500Y-62999620D01*
X50413840Y-58986420D02*
X50413840Y-62938960D01*
G04 #@! TD*
D24*
G36*
X56602000Y-73945120D02*
X45810279Y-73945120D01*
X45819721Y-73927455D01*
X45911211Y-73625854D01*
X45942103Y-73312199D01*
X45911211Y-72998544D01*
X45819721Y-72696943D01*
X45671150Y-72418986D01*
X45471207Y-72175354D01*
X45227575Y-71975411D01*
X44949618Y-71826840D01*
X44648017Y-71735350D01*
X44412959Y-71712199D01*
X43255765Y-71712199D01*
X43020707Y-71735350D01*
X42719106Y-71826840D01*
X42441149Y-71975411D01*
X42197517Y-72175354D01*
X42014391Y-72398495D01*
X42015673Y-69817787D01*
X51202556Y-69816792D01*
X51309394Y-69839165D01*
X51316448Y-69849723D01*
X51506158Y-70039433D01*
X51516716Y-70046487D01*
X51550424Y-70207450D01*
X51805428Y-70344640D01*
X52082296Y-70429446D01*
X52370388Y-70458607D01*
X52658635Y-70431004D01*
X52935957Y-70347698D01*
X53191698Y-70211889D01*
X53198340Y-70207450D01*
X53232048Y-70046487D01*
X53242606Y-70039433D01*
X53432316Y-69849723D01*
X53439370Y-69839165D01*
X53547421Y-69816538D01*
X55557442Y-69816320D01*
X55633976Y-69801088D01*
X55698856Y-69757726D01*
X55742204Y-69692837D01*
X55757420Y-69616299D01*
X55756226Y-58254413D01*
X55841629Y-58126598D01*
X55917011Y-57944609D01*
X55955440Y-57751411D01*
X55955440Y-57554429D01*
X55917011Y-57361231D01*
X55841629Y-57179242D01*
X55756099Y-57051238D01*
X55754880Y-45455819D01*
X55739656Y-45379303D01*
X55696301Y-45314419D01*
X55631417Y-45271064D01*
X55554880Y-45255840D01*
X55203551Y-45255840D01*
X55173833Y-45157872D01*
X55106511Y-45031923D01*
X55091313Y-45013404D01*
X55038610Y-44949185D01*
X55038603Y-44949178D01*
X55015911Y-44921528D01*
X54988262Y-44898837D01*
X54344052Y-44254628D01*
X54321352Y-44226968D01*
X54210957Y-44136369D01*
X54194548Y-44127598D01*
X54211463Y-44125932D01*
X54338701Y-44087335D01*
X54455964Y-44024657D01*
X54558746Y-43940305D01*
X54643098Y-43837523D01*
X54705776Y-43720260D01*
X54744373Y-43593022D01*
X54757406Y-43460699D01*
X54754140Y-43427540D01*
X54754140Y-42303839D01*
X54757406Y-42270680D01*
X54744373Y-42138357D01*
X54705776Y-42011119D01*
X54643098Y-41893856D01*
X54558746Y-41791074D01*
X54455964Y-41706722D01*
X54338701Y-41644044D01*
X54211463Y-41605447D01*
X54112299Y-41595680D01*
X54079140Y-41592414D01*
X54045981Y-41595680D01*
X33853259Y-41595680D01*
X33820100Y-41592414D01*
X33786941Y-41595680D01*
X33687777Y-41605447D01*
X33560539Y-41644044D01*
X33443276Y-41706722D01*
X33340494Y-41791074D01*
X33256142Y-41893856D01*
X33193464Y-42011119D01*
X33154867Y-42138357D01*
X33141834Y-42270680D01*
X33145100Y-42303840D01*
X33145101Y-43427530D01*
X33141834Y-43460699D01*
X33154867Y-43593022D01*
X33193464Y-43720260D01*
X33256142Y-43837523D01*
X33340494Y-43940305D01*
X33443276Y-44024657D01*
X33560539Y-44087335D01*
X33687777Y-44125932D01*
X33786941Y-44135699D01*
X33820100Y-44138965D01*
X33853259Y-44135699D01*
X34508837Y-44135699D01*
X34508837Y-45255840D01*
X32108140Y-45255840D01*
X32031603Y-45271064D01*
X31966719Y-45314419D01*
X31923364Y-45379303D01*
X31908140Y-45455840D01*
X31908140Y-69618860D01*
X31923372Y-69695417D01*
X31966734Y-69760297D01*
X32031623Y-69803644D01*
X32108162Y-69818860D01*
X33941484Y-69818661D01*
X34039394Y-69839165D01*
X34046448Y-69849723D01*
X34236158Y-70039433D01*
X34246716Y-70046487D01*
X34280424Y-70207450D01*
X34535428Y-70344640D01*
X34812296Y-70429446D01*
X35100388Y-70458607D01*
X35388635Y-70431004D01*
X35431871Y-70418016D01*
X35447640Y-73945120D01*
X30989900Y-73945120D01*
X30989900Y-41518200D01*
X56602001Y-41518200D01*
X56602000Y-73945120D01*
X56602000Y-73945120D01*
G37*
X56602000Y-73945120D02*
X45810279Y-73945120D01*
X45819721Y-73927455D01*
X45911211Y-73625854D01*
X45942103Y-73312199D01*
X45911211Y-72998544D01*
X45819721Y-72696943D01*
X45671150Y-72418986D01*
X45471207Y-72175354D01*
X45227575Y-71975411D01*
X44949618Y-71826840D01*
X44648017Y-71735350D01*
X44412959Y-71712199D01*
X43255765Y-71712199D01*
X43020707Y-71735350D01*
X42719106Y-71826840D01*
X42441149Y-71975411D01*
X42197517Y-72175354D01*
X42014391Y-72398495D01*
X42015673Y-69817787D01*
X51202556Y-69816792D01*
X51309394Y-69839165D01*
X51316448Y-69849723D01*
X51506158Y-70039433D01*
X51516716Y-70046487D01*
X51550424Y-70207450D01*
X51805428Y-70344640D01*
X52082296Y-70429446D01*
X52370388Y-70458607D01*
X52658635Y-70431004D01*
X52935957Y-70347698D01*
X53191698Y-70211889D01*
X53198340Y-70207450D01*
X53232048Y-70046487D01*
X53242606Y-70039433D01*
X53432316Y-69849723D01*
X53439370Y-69839165D01*
X53547421Y-69816538D01*
X55557442Y-69816320D01*
X55633976Y-69801088D01*
X55698856Y-69757726D01*
X55742204Y-69692837D01*
X55757420Y-69616299D01*
X55756226Y-58254413D01*
X55841629Y-58126598D01*
X55917011Y-57944609D01*
X55955440Y-57751411D01*
X55955440Y-57554429D01*
X55917011Y-57361231D01*
X55841629Y-57179242D01*
X55756099Y-57051238D01*
X55754880Y-45455819D01*
X55739656Y-45379303D01*
X55696301Y-45314419D01*
X55631417Y-45271064D01*
X55554880Y-45255840D01*
X55203551Y-45255840D01*
X55173833Y-45157872D01*
X55106511Y-45031923D01*
X55091313Y-45013404D01*
X55038610Y-44949185D01*
X55038603Y-44949178D01*
X55015911Y-44921528D01*
X54988262Y-44898837D01*
X54344052Y-44254628D01*
X54321352Y-44226968D01*
X54210957Y-44136369D01*
X54194548Y-44127598D01*
X54211463Y-44125932D01*
X54338701Y-44087335D01*
X54455964Y-44024657D01*
X54558746Y-43940305D01*
X54643098Y-43837523D01*
X54705776Y-43720260D01*
X54744373Y-43593022D01*
X54757406Y-43460699D01*
X54754140Y-43427540D01*
X54754140Y-42303839D01*
X54757406Y-42270680D01*
X54744373Y-42138357D01*
X54705776Y-42011119D01*
X54643098Y-41893856D01*
X54558746Y-41791074D01*
X54455964Y-41706722D01*
X54338701Y-41644044D01*
X54211463Y-41605447D01*
X54112299Y-41595680D01*
X54079140Y-41592414D01*
X54045981Y-41595680D01*
X33853259Y-41595680D01*
X33820100Y-41592414D01*
X33786941Y-41595680D01*
X33687777Y-41605447D01*
X33560539Y-41644044D01*
X33443276Y-41706722D01*
X33340494Y-41791074D01*
X33256142Y-41893856D01*
X33193464Y-42011119D01*
X33154867Y-42138357D01*
X33141834Y-42270680D01*
X33145100Y-42303840D01*
X33145101Y-43427530D01*
X33141834Y-43460699D01*
X33154867Y-43593022D01*
X33193464Y-43720260D01*
X33256142Y-43837523D01*
X33340494Y-43940305D01*
X33443276Y-44024657D01*
X33560539Y-44087335D01*
X33687777Y-44125932D01*
X33786941Y-44135699D01*
X33820100Y-44138965D01*
X33853259Y-44135699D01*
X34508837Y-44135699D01*
X34508837Y-45255840D01*
X32108140Y-45255840D01*
X32031603Y-45271064D01*
X31966719Y-45314419D01*
X31923364Y-45379303D01*
X31908140Y-45455840D01*
X31908140Y-69618860D01*
X31923372Y-69695417D01*
X31966734Y-69760297D01*
X32031623Y-69803644D01*
X32108162Y-69818860D01*
X33941484Y-69818661D01*
X34039394Y-69839165D01*
X34046448Y-69849723D01*
X34236158Y-70039433D01*
X34246716Y-70046487D01*
X34280424Y-70207450D01*
X34535428Y-70344640D01*
X34812296Y-70429446D01*
X35100388Y-70458607D01*
X35388635Y-70431004D01*
X35431871Y-70418016D01*
X35447640Y-73945120D01*
X30989900Y-73945120D01*
X30989900Y-41518200D01*
X56602001Y-41518200D01*
X56602000Y-73945120D01*
G36*
X37048837Y-45255840D02*
X36715884Y-45255840D01*
X36514643Y-45054599D01*
X36514643Y-44135699D01*
X37048837Y-44135699D01*
X37048837Y-45255840D01*
X37048837Y-45255840D01*
G37*
X37048837Y-45255840D02*
X36715884Y-45255840D01*
X36514643Y-45054599D01*
X36514643Y-44135699D01*
X37048837Y-44135699D01*
X37048837Y-45255840D01*
G36*
X40858837Y-45255840D02*
X40324643Y-45255840D01*
X40324643Y-44135699D01*
X40858837Y-44135699D01*
X40858837Y-45255840D01*
X40858837Y-45255840D01*
G37*
X40858837Y-45255840D02*
X40324643Y-45255840D01*
X40324643Y-44135699D01*
X40858837Y-44135699D01*
X40858837Y-45255840D01*
G36*
X45938837Y-45255840D02*
X42864643Y-45255840D01*
X42864643Y-44135699D01*
X45938837Y-44135699D01*
X45938837Y-45255840D01*
X45938837Y-45255840D01*
G37*
X45938837Y-45255840D02*
X42864643Y-45255840D01*
X42864643Y-44135699D01*
X45938837Y-44135699D01*
X45938837Y-45255840D01*
M02*
