G04 #@! TF.GenerationSoftware,KiCad,Pcbnew,(5.0.2)-1*
G04 #@! TF.CreationDate,2019-07-28T23:06:21+08:00*
G04 #@! TF.ProjectId,PIR,5049522e-6b69-4636-9164-5f7063625858,rev?*
G04 #@! TF.SameCoordinates,Original*
G04 #@! TF.FileFunction,Paste,Top*
G04 #@! TF.FilePolarity,Positive*
%FSLAX46Y46*%
G04 Gerber Fmt 4.6, Leading zero omitted, Abs format (unit mm)*
G04 Created by KiCad (PCBNEW (5.0.2)-1) date 2019-07-28 23:06:21*
%MOMM*%
%LPD*%
G01*
G04 APERTURE LIST*
%ADD10R,0.800000X2.000000*%
%ADD11R,2.500000X2.000000*%
%ADD12R,0.930000X0.980000*%
%ADD13R,0.600000X1.100000*%
%ADD14O,1.300000X0.300000*%
%ADD15C,0.100000*%
%ADD16C,0.400000*%
%ADD17R,0.800000X2.700000*%
G04 APERTURE END LIST*
D10*
G04 #@! TO.C,U1*
X46941740Y-44577000D03*
D11*
X52301140Y-44554140D03*
D10*
X49481740Y-44577000D03*
X48211740Y-44577000D03*
X41861740Y-44577000D03*
X39321740Y-44577000D03*
X38051740Y-44577000D03*
X35511740Y-44577000D03*
G04 #@! TD*
D12*
G04 #@! TO.C,C7*
X35942780Y-50065940D03*
X37482780Y-50065940D03*
G04 #@! TD*
G04 #@! TO.C,R7*
X37467540Y-51912520D03*
X35927540Y-51912520D03*
G04 #@! TD*
G04 #@! TO.C,R6*
X35927540Y-53799740D03*
X37467540Y-53799740D03*
G04 #@! TD*
D13*
G04 #@! TO.C,U4*
X52252920Y-56295640D03*
X51302920Y-56295640D03*
X50352920Y-56295640D03*
X50352920Y-59095640D03*
X51302920Y-59095640D03*
X52252920Y-59095640D03*
G04 #@! TD*
D14*
G04 #@! TO.C,U2*
X45519340Y-64952880D03*
X45519340Y-65452880D03*
X45519340Y-65952880D03*
X42519340Y-64952880D03*
X42519340Y-65452880D03*
X42519340Y-65952880D03*
G04 #@! TD*
D15*
G04 #@! TO.C,U3*
G36*
X37650082Y-71104122D02*
X37659789Y-71105561D01*
X37669308Y-71107946D01*
X37678548Y-71111252D01*
X37687420Y-71115448D01*
X37695837Y-71120493D01*
X37703719Y-71126339D01*
X37710991Y-71132929D01*
X37717581Y-71140201D01*
X37723427Y-71148083D01*
X37728472Y-71156500D01*
X37732668Y-71165372D01*
X37735974Y-71174612D01*
X37738359Y-71184131D01*
X37739798Y-71193838D01*
X37740280Y-71203640D01*
X37740280Y-71403640D01*
X37739798Y-71413442D01*
X37738359Y-71423149D01*
X37735974Y-71432668D01*
X37732668Y-71441908D01*
X37728472Y-71450780D01*
X37723427Y-71459197D01*
X37717581Y-71467079D01*
X37710991Y-71474351D01*
X37703719Y-71480941D01*
X37695837Y-71486787D01*
X37687420Y-71491832D01*
X37678548Y-71496028D01*
X37669308Y-71499334D01*
X37659789Y-71501719D01*
X37650082Y-71503158D01*
X37640280Y-71503640D01*
X36840280Y-71503640D01*
X36830478Y-71503158D01*
X36820771Y-71501719D01*
X36811252Y-71499334D01*
X36802012Y-71496028D01*
X36793140Y-71491832D01*
X36784723Y-71486787D01*
X36776841Y-71480941D01*
X36769569Y-71474351D01*
X36762979Y-71467079D01*
X36757133Y-71459197D01*
X36752088Y-71450780D01*
X36747892Y-71441908D01*
X36744586Y-71432668D01*
X36742201Y-71423149D01*
X36740762Y-71413442D01*
X36740280Y-71403640D01*
X36740280Y-71203640D01*
X36740762Y-71193838D01*
X36742201Y-71184131D01*
X36744586Y-71174612D01*
X36747892Y-71165372D01*
X36752088Y-71156500D01*
X36757133Y-71148083D01*
X36762979Y-71140201D01*
X36769569Y-71132929D01*
X36776841Y-71126339D01*
X36784723Y-71120493D01*
X36793140Y-71115448D01*
X36802012Y-71111252D01*
X36811252Y-71107946D01*
X36820771Y-71105561D01*
X36830478Y-71104122D01*
X36840280Y-71103640D01*
X37640280Y-71103640D01*
X37650082Y-71104122D01*
X37650082Y-71104122D01*
G37*
D16*
X37240280Y-71303640D03*
D15*
G36*
X37650082Y-72104122D02*
X37659789Y-72105561D01*
X37669308Y-72107946D01*
X37678548Y-72111252D01*
X37687420Y-72115448D01*
X37695837Y-72120493D01*
X37703719Y-72126339D01*
X37710991Y-72132929D01*
X37717581Y-72140201D01*
X37723427Y-72148083D01*
X37728472Y-72156500D01*
X37732668Y-72165372D01*
X37735974Y-72174612D01*
X37738359Y-72184131D01*
X37739798Y-72193838D01*
X37740280Y-72203640D01*
X37740280Y-72403640D01*
X37739798Y-72413442D01*
X37738359Y-72423149D01*
X37735974Y-72432668D01*
X37732668Y-72441908D01*
X37728472Y-72450780D01*
X37723427Y-72459197D01*
X37717581Y-72467079D01*
X37710991Y-72474351D01*
X37703719Y-72480941D01*
X37695837Y-72486787D01*
X37687420Y-72491832D01*
X37678548Y-72496028D01*
X37669308Y-72499334D01*
X37659789Y-72501719D01*
X37650082Y-72503158D01*
X37640280Y-72503640D01*
X36840280Y-72503640D01*
X36830478Y-72503158D01*
X36820771Y-72501719D01*
X36811252Y-72499334D01*
X36802012Y-72496028D01*
X36793140Y-72491832D01*
X36784723Y-72486787D01*
X36776841Y-72480941D01*
X36769569Y-72474351D01*
X36762979Y-72467079D01*
X36757133Y-72459197D01*
X36752088Y-72450780D01*
X36747892Y-72441908D01*
X36744586Y-72432668D01*
X36742201Y-72423149D01*
X36740762Y-72413442D01*
X36740280Y-72403640D01*
X36740280Y-72203640D01*
X36740762Y-72193838D01*
X36742201Y-72184131D01*
X36744586Y-72174612D01*
X36747892Y-72165372D01*
X36752088Y-72156500D01*
X36757133Y-72148083D01*
X36762979Y-72140201D01*
X36769569Y-72132929D01*
X36776841Y-72126339D01*
X36784723Y-72120493D01*
X36793140Y-72115448D01*
X36802012Y-72111252D01*
X36811252Y-72107946D01*
X36820771Y-72105561D01*
X36830478Y-72104122D01*
X36840280Y-72103640D01*
X37640280Y-72103640D01*
X37650082Y-72104122D01*
X37650082Y-72104122D01*
G37*
D16*
X37240280Y-72303640D03*
D15*
G36*
X37650082Y-73104122D02*
X37659789Y-73105561D01*
X37669308Y-73107946D01*
X37678548Y-73111252D01*
X37687420Y-73115448D01*
X37695837Y-73120493D01*
X37703719Y-73126339D01*
X37710991Y-73132929D01*
X37717581Y-73140201D01*
X37723427Y-73148083D01*
X37728472Y-73156500D01*
X37732668Y-73165372D01*
X37735974Y-73174612D01*
X37738359Y-73184131D01*
X37739798Y-73193838D01*
X37740280Y-73203640D01*
X37740280Y-73403640D01*
X37739798Y-73413442D01*
X37738359Y-73423149D01*
X37735974Y-73432668D01*
X37732668Y-73441908D01*
X37728472Y-73450780D01*
X37723427Y-73459197D01*
X37717581Y-73467079D01*
X37710991Y-73474351D01*
X37703719Y-73480941D01*
X37695837Y-73486787D01*
X37687420Y-73491832D01*
X37678548Y-73496028D01*
X37669308Y-73499334D01*
X37659789Y-73501719D01*
X37650082Y-73503158D01*
X37640280Y-73503640D01*
X36840280Y-73503640D01*
X36830478Y-73503158D01*
X36820771Y-73501719D01*
X36811252Y-73499334D01*
X36802012Y-73496028D01*
X36793140Y-73491832D01*
X36784723Y-73486787D01*
X36776841Y-73480941D01*
X36769569Y-73474351D01*
X36762979Y-73467079D01*
X36757133Y-73459197D01*
X36752088Y-73450780D01*
X36747892Y-73441908D01*
X36744586Y-73432668D01*
X36742201Y-73423149D01*
X36740762Y-73413442D01*
X36740280Y-73403640D01*
X36740280Y-73203640D01*
X36740762Y-73193838D01*
X36742201Y-73184131D01*
X36744586Y-73174612D01*
X36747892Y-73165372D01*
X36752088Y-73156500D01*
X36757133Y-73148083D01*
X36762979Y-73140201D01*
X36769569Y-73132929D01*
X36776841Y-73126339D01*
X36784723Y-73120493D01*
X36793140Y-73115448D01*
X36802012Y-73111252D01*
X36811252Y-73107946D01*
X36820771Y-73105561D01*
X36830478Y-73104122D01*
X36840280Y-73103640D01*
X37640280Y-73103640D01*
X37650082Y-73104122D01*
X37650082Y-73104122D01*
G37*
D16*
X37240280Y-73303640D03*
D15*
G36*
X40750082Y-73104122D02*
X40759789Y-73105561D01*
X40769308Y-73107946D01*
X40778548Y-73111252D01*
X40787420Y-73115448D01*
X40795837Y-73120493D01*
X40803719Y-73126339D01*
X40810991Y-73132929D01*
X40817581Y-73140201D01*
X40823427Y-73148083D01*
X40828472Y-73156500D01*
X40832668Y-73165372D01*
X40835974Y-73174612D01*
X40838359Y-73184131D01*
X40839798Y-73193838D01*
X40840280Y-73203640D01*
X40840280Y-73403640D01*
X40839798Y-73413442D01*
X40838359Y-73423149D01*
X40835974Y-73432668D01*
X40832668Y-73441908D01*
X40828472Y-73450780D01*
X40823427Y-73459197D01*
X40817581Y-73467079D01*
X40810991Y-73474351D01*
X40803719Y-73480941D01*
X40795837Y-73486787D01*
X40787420Y-73491832D01*
X40778548Y-73496028D01*
X40769308Y-73499334D01*
X40759789Y-73501719D01*
X40750082Y-73503158D01*
X40740280Y-73503640D01*
X39940280Y-73503640D01*
X39930478Y-73503158D01*
X39920771Y-73501719D01*
X39911252Y-73499334D01*
X39902012Y-73496028D01*
X39893140Y-73491832D01*
X39884723Y-73486787D01*
X39876841Y-73480941D01*
X39869569Y-73474351D01*
X39862979Y-73467079D01*
X39857133Y-73459197D01*
X39852088Y-73450780D01*
X39847892Y-73441908D01*
X39844586Y-73432668D01*
X39842201Y-73423149D01*
X39840762Y-73413442D01*
X39840280Y-73403640D01*
X39840280Y-73203640D01*
X39840762Y-73193838D01*
X39842201Y-73184131D01*
X39844586Y-73174612D01*
X39847892Y-73165372D01*
X39852088Y-73156500D01*
X39857133Y-73148083D01*
X39862979Y-73140201D01*
X39869569Y-73132929D01*
X39876841Y-73126339D01*
X39884723Y-73120493D01*
X39893140Y-73115448D01*
X39902012Y-73111252D01*
X39911252Y-73107946D01*
X39920771Y-73105561D01*
X39930478Y-73104122D01*
X39940280Y-73103640D01*
X40740280Y-73103640D01*
X40750082Y-73104122D01*
X40750082Y-73104122D01*
G37*
D16*
X40340280Y-73303640D03*
D15*
G36*
X40750082Y-72104122D02*
X40759789Y-72105561D01*
X40769308Y-72107946D01*
X40778548Y-72111252D01*
X40787420Y-72115448D01*
X40795837Y-72120493D01*
X40803719Y-72126339D01*
X40810991Y-72132929D01*
X40817581Y-72140201D01*
X40823427Y-72148083D01*
X40828472Y-72156500D01*
X40832668Y-72165372D01*
X40835974Y-72174612D01*
X40838359Y-72184131D01*
X40839798Y-72193838D01*
X40840280Y-72203640D01*
X40840280Y-72403640D01*
X40839798Y-72413442D01*
X40838359Y-72423149D01*
X40835974Y-72432668D01*
X40832668Y-72441908D01*
X40828472Y-72450780D01*
X40823427Y-72459197D01*
X40817581Y-72467079D01*
X40810991Y-72474351D01*
X40803719Y-72480941D01*
X40795837Y-72486787D01*
X40787420Y-72491832D01*
X40778548Y-72496028D01*
X40769308Y-72499334D01*
X40759789Y-72501719D01*
X40750082Y-72503158D01*
X40740280Y-72503640D01*
X39940280Y-72503640D01*
X39930478Y-72503158D01*
X39920771Y-72501719D01*
X39911252Y-72499334D01*
X39902012Y-72496028D01*
X39893140Y-72491832D01*
X39884723Y-72486787D01*
X39876841Y-72480941D01*
X39869569Y-72474351D01*
X39862979Y-72467079D01*
X39857133Y-72459197D01*
X39852088Y-72450780D01*
X39847892Y-72441908D01*
X39844586Y-72432668D01*
X39842201Y-72423149D01*
X39840762Y-72413442D01*
X39840280Y-72403640D01*
X39840280Y-72203640D01*
X39840762Y-72193838D01*
X39842201Y-72184131D01*
X39844586Y-72174612D01*
X39847892Y-72165372D01*
X39852088Y-72156500D01*
X39857133Y-72148083D01*
X39862979Y-72140201D01*
X39869569Y-72132929D01*
X39876841Y-72126339D01*
X39884723Y-72120493D01*
X39893140Y-72115448D01*
X39902012Y-72111252D01*
X39911252Y-72107946D01*
X39920771Y-72105561D01*
X39930478Y-72104122D01*
X39940280Y-72103640D01*
X40740280Y-72103640D01*
X40750082Y-72104122D01*
X40750082Y-72104122D01*
G37*
D16*
X40340280Y-72303640D03*
D15*
G36*
X40750082Y-71104122D02*
X40759789Y-71105561D01*
X40769308Y-71107946D01*
X40778548Y-71111252D01*
X40787420Y-71115448D01*
X40795837Y-71120493D01*
X40803719Y-71126339D01*
X40810991Y-71132929D01*
X40817581Y-71140201D01*
X40823427Y-71148083D01*
X40828472Y-71156500D01*
X40832668Y-71165372D01*
X40835974Y-71174612D01*
X40838359Y-71184131D01*
X40839798Y-71193838D01*
X40840280Y-71203640D01*
X40840280Y-71403640D01*
X40839798Y-71413442D01*
X40838359Y-71423149D01*
X40835974Y-71432668D01*
X40832668Y-71441908D01*
X40828472Y-71450780D01*
X40823427Y-71459197D01*
X40817581Y-71467079D01*
X40810991Y-71474351D01*
X40803719Y-71480941D01*
X40795837Y-71486787D01*
X40787420Y-71491832D01*
X40778548Y-71496028D01*
X40769308Y-71499334D01*
X40759789Y-71501719D01*
X40750082Y-71503158D01*
X40740280Y-71503640D01*
X39940280Y-71503640D01*
X39930478Y-71503158D01*
X39920771Y-71501719D01*
X39911252Y-71499334D01*
X39902012Y-71496028D01*
X39893140Y-71491832D01*
X39884723Y-71486787D01*
X39876841Y-71480941D01*
X39869569Y-71474351D01*
X39862979Y-71467079D01*
X39857133Y-71459197D01*
X39852088Y-71450780D01*
X39847892Y-71441908D01*
X39844586Y-71432668D01*
X39842201Y-71423149D01*
X39840762Y-71413442D01*
X39840280Y-71403640D01*
X39840280Y-71203640D01*
X39840762Y-71193838D01*
X39842201Y-71184131D01*
X39844586Y-71174612D01*
X39847892Y-71165372D01*
X39852088Y-71156500D01*
X39857133Y-71148083D01*
X39862979Y-71140201D01*
X39869569Y-71132929D01*
X39876841Y-71126339D01*
X39884723Y-71120493D01*
X39893140Y-71115448D01*
X39902012Y-71111252D01*
X39911252Y-71107946D01*
X39920771Y-71105561D01*
X39930478Y-71104122D01*
X39940280Y-71103640D01*
X40740280Y-71103640D01*
X40750082Y-71104122D01*
X40750082Y-71104122D01*
G37*
D16*
X40340280Y-71303640D03*
G04 #@! TD*
D17*
G04 #@! TO.C,L1*
X52473860Y-51313080D03*
X50273860Y-51313080D03*
G04 #@! TD*
D12*
G04 #@! TO.C,C5*
X50532920Y-54020720D03*
X52072920Y-54020720D03*
G04 #@! TD*
G04 #@! TO.C,R4*
X50466880Y-61140340D03*
X52006880Y-61140340D03*
G04 #@! TD*
G04 #@! TO.C,R5*
X52014500Y-62999620D03*
X50474500Y-62999620D03*
G04 #@! TD*
G04 #@! TO.C,C1*
X37473000Y-65021460D03*
X35933000Y-65021460D03*
G04 #@! TD*
G04 #@! TO.C,D1*
X42003980Y-49946560D03*
X43543980Y-49946560D03*
G04 #@! TD*
G04 #@! TO.C,C6*
X50467260Y-64828420D03*
X52007260Y-64828420D03*
G04 #@! TD*
G04 #@! TO.C,C4*
X37442520Y-61379100D03*
X35902520Y-61379100D03*
G04 #@! TD*
G04 #@! TO.C,R3*
X37455220Y-63190120D03*
X35915220Y-63190120D03*
G04 #@! TD*
G04 #@! TO.C,C3*
X37457760Y-55968900D03*
X35917760Y-55968900D03*
G04 #@! TD*
G04 #@! TO.C,C2*
X37460300Y-57777380D03*
X35920300Y-57777380D03*
G04 #@! TD*
G04 #@! TO.C,R2*
X35910140Y-59565540D03*
X37450140Y-59565540D03*
G04 #@! TD*
G04 #@! TO.C,R1*
X47049180Y-49913540D03*
X45509180Y-49913540D03*
G04 #@! TD*
M02*
